<?xml version="1.0" encoding="utf-8"?><svg xmlns="http://www.w3.org/2000/svg" xmlns:xlink="http://www.w3.org/1999/xlink"><symbol id="access" viewBox="0 0 24 24" style="enable-background:new 0 0 24 24" xml:space="preserve" xmlns="http://www.w3.org/2000/svg"><style>.aast0{fill:#000}</style><path class="aast0" d="M15.6 16.4c-.3-.3-.6-.7-.8-1.1-.4-.8-.4-1.8 0-2.7.3-.6.7-1.2 1.2-1.7s.8-1.3.8-2.1c0-.4-.2-.8-.6-1.1-.4-.2-.7-.2-1.1-.2-.5 0-1 .1-1.4.4-.3.3-.4.6-.4 1v7.2c0 .4-.1.8-.2 1.2-.1.4-.4.8-.7 1.1-.4.3-.8.6-1.3.8-.6.2-1.3.3-2 .3s-1.3-.1-1.9-.3c-.5-.2-.9-.4-1.3-.8-.3-.3-.5-.7-.7-1.1-.2-.3-.2-.7-.2-1.1V3h-.6C3.6 3 3 3.6 3 4.4v15.1c0 .9.6 1.5 1.4 1.5h15.1c.2 0 .4 0 .6-.1l-4.5-4.5z"/><path class="aast0" d="M19.6 3H7.4v12.9c0 .4.1.8.4 1 .8.5 1.8.5 2.6 0 .3-.3.4-.7.4-1V8.7c0-.4.1-.8.2-1.2.2-.4.4-.8.7-1.1.4-.4.8-.6 1.3-.8 1.3-.4 2.7-.4 4 0 .6.1 1 .4 1.4.8.4.4.7.9.9 1.5 0 .1.1.2.1.3V8.8c0 .8-.3 1.6-.8 2.3-.2.4-1.3 1.9-1.3 1.9-.4.5-.4 1.2 0 1.7l3.7 3.7v-14c0-.8-.6-1.4-1.4-1.4"/></symbol><symbol viewBox="0 0 24 24" id="action" xmlns="http://www.w3.org/2000/svg"><path d="M21.174 9.64c-.353-.37-.719-.75-.857-1.085-.127-.307-.134-.815-.142-1.307-.014-.915-.03-1.952-.75-2.673-.72-.72-1.758-.736-2.673-.75-.492-.008-1-.015-1.307-.143-.333-.137-.715-.503-1.084-.856C13.714 2.204 12.979 1.5 12 1.5c-.979 0-1.713.704-2.36 1.326-.37.353-.75.719-1.085.857-.305.127-.815.135-1.307.142-.915.014-1.952.03-2.673.75-.72.72-.731 1.758-.75 2.673-.008.492-.015 1-.143 1.307-.137.333-.503.715-.856 1.084C2.204 10.286 1.5 11.021 1.5 12c0 .979.704 1.713 1.326 2.36.353.37.719.75.857 1.085.127.307.135.815.142 1.307.014.915.03 1.952.75 2.673.72.72 1.758.736 2.673.75.492.008 1 .015 1.307.142.333.138.715.504 1.084.857.647.622 1.382 1.326 2.361 1.326.979 0 1.713-.704 2.36-1.326.37-.353.75-.719 1.085-.857.307-.127.815-.134 1.307-.142.915-.014 1.952-.03 2.673-.75.72-.72.736-1.758.75-2.673.008-.492.015-1 .142-1.307.138-.333.504-.715.857-1.084.622-.647 1.326-1.382 1.326-2.361 0-.979-.704-1.713-1.326-2.36Zm-1.082 3.683c-.45.469-.915.953-1.161 1.549-.236.571-.247 1.225-.256 1.858-.01.656-.02 1.343-.311 1.634-.292.29-.974.302-1.634.311-.633.01-1.287.02-1.858.256-.596.246-1.08.711-1.55 1.16-.468.45-.947.909-1.322.909-.375 0-.858-.461-1.323-.908-.465-.448-.953-.915-1.549-1.161-.571-.236-1.225-.247-1.858-.256-.656-.01-1.343-.02-1.634-.311-.29-.292-.302-.974-.311-1.634-.01-.633-.02-1.287-.256-1.858-.247-.596-.712-1.08-1.16-1.55C3.458 12.855 3 12.376 3 12c0-.375.461-.858.908-1.323.448-.465.914-.953 1.161-1.549.236-.571.247-1.225.256-1.858.01-.656.02-1.343.311-1.634.292-.29.974-.302 1.634-.311.633-.01 1.287-.02 1.858-.256.596-.247 1.08-.712 1.55-1.16C11.145 3.458 11.624 3 12 3c.375 0 .858.461 1.323.908.465.448.953.914 1.549 1.161.571.236 1.225.247 1.858.256.656.01 1.343.02 1.634.311.29.292.302.974.311 1.634.01.633.02 1.287.256 1.858.246.596.711 1.08 1.16 1.55.45.468.909.947.909 1.322 0 .375-.461.858-.908 1.323ZM16.28 9.219a.748.748 0 0 1 0 1.062l-5.25 5.25a.747.747 0 0 1-1.062 0l-2.25-2.25a.75.75 0 1 1 1.062-1.062l1.719 1.72 4.72-4.72a.749.749 0 0 1 1.06 0Z"/></symbol><symbol viewBox="0 0 24 24" id="align-z" xmlns="http://www.w3.org/2000/svg"><defs><style>.accls-1{fill:#5c5c5c}</style></defs><g id="acBase"><path class="accls-1" d="m23.83 23.17-.48-1.7-.49-1.7c-.08-.31-.48-.33-.7-.05l-.76.68-6.22-5a3.31 3.31 0 0 0 .09-.77 3.48 3.48 0 0 0-2.44-3.31V4c.52-.07 1-.16 1-.16.36 0 .59-.32.41-.58l-1-1.44-1-1.45a.54.54 0 0 0-.82 0l-1 1.45-1 1.44c-.18.26 0 .58.41.58 0 0 .48.09 1 .16v7.3a3.48 3.48 0 0 0-2.53 3.32 3.29 3.29 0 0 0 .18 1L2.6 20.4l-.76-.68c-.22-.28-.62-.26-.7.05l-.49 1.7-.48 1.7a.53.53 0 0 0 .51.64l1.77-.11 1.77-.11c.31 0 .42-.39.19-.68 0 0-.23-.43-.5-.88l5.78-4.65a3.42 3.42 0 0 0 4.4-.17l6 4.82c-.27.45-.5.88-.5.88-.23.29-.12.66.19.68l1.77.11 1.77.11a.53.53 0 0 0 .51-.64Zm-12-6.47a2.09 2.09 0 1 1 2.08-2.08 2.08 2.08 0 0 1-2.12 2.08Z"/><path class="accls-1" d="M18.99 5.81h-2.6l2.55-3.18v-.28h-3.29v.48h2.39l-2.55 3.18v.28h3.5v-.48z"/></g></symbol><symbol viewBox="0 0 24 24" id="all-axes" xmlns="http://www.w3.org/2000/svg"><path class="adcls-1" d="m23.92 23.32-.49-1.73-.49-1.72c-.08-.31-.48-.33-.71 0 0 0-.38.32-.77.68l-3.27-2.64a7.16 7.16 0 0 0-1-8c.26-.35.54-.77.54-.77a.31.31 0 0 0-.12-.53l-1.31-.29L15 8a.35.35 0 0 0-.41.41l.29 1.31.25 1.28a.31.31 0 0 0 .53.12s.43-.29.78-.55A6.18 6.18 0 0 1 18 14.65a6.07 6.07 0 0 1-.58 2.59l-2.24-1.81a3.33 3.33 0 0 0 .09-.78 3.52 3.52 0 0 0-2.47-3.35V3.91l1-.17c.37 0 .6-.32.42-.58l-1-1.47-1-1.46a.54.54 0 0 0-.83 0l-1 1.46-1 1.47c-.18.26 0 .58.41.58l1 .17v7.39a3.53 3.53 0 0 0-2.46 3.35 3.42 3.42 0 0 0 .18 1.06l-2.2 1.77a6.12 6.12 0 0 1-.71-2.83 6.22 6.22 0 0 1 3-5.31.51.51 0 0 0 .16-.69.5.5 0 0 0-.69-.15 7.19 7.19 0 0 0-3.41 6.15 7.12 7.12 0 0 0 .92 3.46l-3 2.4c-.39-.36-.76-.68-.76-.68-.23-.29-.63-.27-.72 0l-.67 1.76L0 23.32a.54.54 0 0 0 .47.68l1.79-.11 1.79-.1c.32 0 .43-.41.2-.69l-.5-.9 2.9-2.34A7.2 7.2 0 0 0 17 19.62l3.16 2.54c-.27.46-.5.9-.5.9-.23.28-.13.67.19.69l1.79.1 1.76.15a.53.53 0 0 0 .52-.68Zm-12.2-10.78a2.12 2.12 0 1 1-2.11 2.11 2.1 2.1 0 0 1 2.11-2.11Zm0 8.37a6.21 6.21 0 0 1-4.28-1.72l2.16-1.74a3.48 3.48 0 0 0 2.12.73 3.55 3.55 0 0 0 2.34-.9L16.2 19a6.18 6.18 0 0 1-4.48 1.91Z"/></symbol><symbol viewBox="0 0 24 24" id="application" xmlns="http://www.w3.org/2000/svg"><path fill-rule="evenodd" clip-rule="evenodd" d="M2 2.889C2 2.398 2.398 2 2.889 2H10c.49 0 .889.398.889.889V10c0 .49-.398.889-.889.889H2.889A.889.889 0 0 1 2 10V2.889Zm1.778.889V9.11H9.11V3.778H3.778ZM13.111 2.889c0-.491.398-.889.889-.889h7.111c.491 0 .889.398.889.889V10c0 .49-.398.889-.889.889H14a.889.889 0 0 1-.889-.889V2.889Zm1.778.889V9.11h5.333V3.778H14.89ZM2 14c0-.49.398-.889.889-.889H10c.49 0 .889.398.889.889v7.111c0 .491-.398.889-.889.889H2.889A.889.889 0 0 1 2 21.111V14Zm1.778.889v5.333H9.11V14.89H3.778ZM13.111 14c0-.49.398-.889.889-.889h7.111c.491 0 .889.398.889.889v7.111c0 .491-.398.889-.889.889H14a.889.889 0 0 1-.889-.889V14Zm1.778.889v5.333h5.333V14.89H14.89Z"/></symbol><symbol viewBox="0 0 24 24" id="arrow-back" xmlns="http://www.w3.org/2000/svg"><path fill-rule="evenodd" clip-rule="evenodd" d="M3.5 12.5c0-.387.317-.7.708-.7h15.584c.39 0 .708.313.708.7 0 .387-.317.7-.708.7H4.208a.704.704 0 0 1-.708-.7Z"/><path fill-rule="evenodd" clip-rule="evenodd" d="M3.707 12.995a.694.694 0 0 1 0-.99l6.375-6.3a.714.714 0 0 1 1.002 0 .694.694 0 0 1 0 .99L5.21 12.5l5.874 5.805a.694.694 0 0 1 0 .99.714.714 0 0 1-1.002 0l-6.375-6.3Z"/></symbol><symbol viewBox="0 0 24 24" id="arrow-down" xmlns="http://www.w3.org/2000/svg"><path fill-rule="evenodd" clip-rule="evenodd" d="M12 4c.387 0 .7.317.7.708v13.874l5.105-5.166a.694.694 0 0 1 .99 0 .714.714 0 0 1 0 1.002l-6.3 6.375a.694.694 0 0 1-.99 0l-6.3-6.375a.714.714 0 0 1 0-1.002.694.694 0 0 1 .99 0l5.105 5.166V4.708c0-.39.313-.708.7-.708Z"/></symbol><symbol viewBox="0 0 24 24" id="arrow-up" xmlns="http://www.w3.org/2000/svg"><path fill-rule="evenodd" clip-rule="evenodd" d="M12 4c.387 0 .7.317.7.708v15.584A.704.704 0 0 1 12 21a.704.704 0 0 1-.7-.708V4.708c0-.39.313-.708.7-.708Z"/><path fill-rule="evenodd" clip-rule="evenodd" d="M11.505 4.207a.694.694 0 0 1 .99 0l6.3 6.375a.714.714 0 0 1 0 1.002.694.694 0 0 1-.99 0L12 5.71l-5.805 5.874a.694.694 0 0 1-.99 0 .714.714 0 0 1 0-1.002l6.3-6.375Z"/></symbol><symbol viewBox="0 0 24 24" id="assignment" xmlns="http://www.w3.org/2000/svg"><path fill-rule="evenodd" clip-rule="evenodd" d="M3.75 3.214c.296 0 .536.24.536.536v16.5a.536.536 0 1 1-1.072 0V3.75c0-.296.24-.536.536-.536ZM7.5 5.786A.214.214 0 0 0 7.286 6v3.75c0 .118.096.214.214.214h9a.214.214 0 0 0 .214-.214V6a.214.214 0 0 0-.214-.214h-9ZM6.214 6c0-.71.576-1.286 1.286-1.286h9c.71 0 1.286.576 1.286 1.286v3.75c0 .71-.576 1.286-1.286 1.286h-9c-.71 0-1.286-.576-1.286-1.286V6ZM7.5 14.036a.214.214 0 0 0-.214.214V18c0 .118.096.214.214.214h12.75a.214.214 0 0 0 .214-.214v-3.75a.214.214 0 0 0-.214-.214H7.5Zm-1.286.214c0-.71.576-1.286 1.286-1.286h12.75c.71 0 1.286.576 1.286 1.286V18c0 .71-.576 1.286-1.286 1.286H7.5c-.71 0-1.286-.576-1.286-1.286v-3.75Z"/></symbol><symbol viewBox="0 0 24 24" id="automatic" xmlns="http://www.w3.org/2000/svg"><path fill-rule="evenodd" clip-rule="evenodd" d="M9.463 2.423c1.189-.147 3.678.1 5.688 1.882.866.768 1.438 1.803 1.742 2.894.498 1.786.65 4.358-1.665 6.338a.35.35 0 0 1-.546-.413c.419-.906.502-2.393.126-3.813-.375-1.417-1.181-2.676-2.446-3.218l-.009-.004-.01-.005c-.568-.284-1.727-.42-3.074-.097a7.447 7.447 0 0 0-4 2.508c-.04.048-.087.097-.144.156-.141.144-.345.353-.664.783-.428.577-1.017 1.504-1.72 2.987a.35.35 0 0 1-.662-.092c-.265-1.591.132-3.923 1.303-5.922 1.177-2.01 3.16-3.72 6.081-3.984Z"/><path fill-rule="evenodd" clip-rule="evenodd" d="M15.399 2.135a.35.35 0 0 1 .386-.117c1.538.51 3.37 1.936 4.567 3.889 1.205 1.965 1.786 4.498.753 7.207-.426 1.118-1.812 3.205-4.333 4.146-1.085.404-2.263.421-3.368.207-.928-.18-2.002-.522-2.912-1.212-.92-.698-1.656-1.74-1.912-3.28a.35.35 0 0 1 .634-.255c.751 1.092 2.09 1.756 3.55 1.912 1.46.155 2.988-.205 4.09-1.092l.008-.006.009-.006c.515-.367 1.089-1.219 1.349-2.445.258-1.214.202-2.771-.51-4.516-.245-.6-.353-.862-.63-1.34-.246-.421-.62-1.003-1.322-2.099l-.378-.59a.35.35 0 0 1 .019-.403Z"/><path fill-rule="evenodd" clip-rule="evenodd" d="M6.715 19.408c-1.076-.937-3-3.663-2.21-7.185.223-.992.996-2.168 2.132-3.068 1.146-.907 2.691-1.56 4.485-1.46a.35.35 0 0 1 .168.645c-1.713 1.085-4.314 3.151-3.764 6.512.353 2.16 2.66 3.925 6.55 3.942 1.69.008 2.884-.315 4.463-1.082a.35.35 0 0 1 .427.534c-1.01 1.259-2.985 2.481-5.233 2.93-2.262.453-4.84.129-7.018-1.768Z"/></symbol><symbol viewBox="0 0 24 24" id="backdrive" xmlns="http://www.w3.org/2000/svg"><path d="M17.22 14.18c.74-.89 1.21-2.02 1.21-3.27 0-2.78-2.22-5.04-4.97-5.13L5.58 3.05a.868.868 0 0 0-1.08.46L2.08 8.88c-.18.39-.05.85.31 1.08l6.73 4.47-.99 5.1c-.07.34.02.68.24.95.22.27.54.42.89.42h7.95c.35 0 .67-.15.89-.42.22-.27.3-.62.23-.96l-1.11-5.33v-.01Zm-.29-3.27c0 2.01-1.64 3.65-3.65 3.65s-3.65-1.64-3.65-3.65 1.64-3.65 3.65-3.65 3.65 1.64 3.65 3.65ZM5.63 4.65l5.13 1.77c-1.57.88-2.65 2.55-2.65 4.47 0 .4.06.78.14 1.16L3.67 9.01l1.96-4.36Zm4.05 14.74.81-4.16c.8.52 1.76.83 2.78.83.97 0 1.87-.29 2.65-.76l.86 4.09h-7.1Z"/><path fill-rule="evenodd" clip-rule="evenodd" d="M17.584 5.723a.5.5 0 0 1 .693-.139c1.647 1.098 2.77 3.302 2.202 5.48a.5.5 0 1 1-.967-.253c.442-1.697-.436-3.493-1.79-4.395a.5.5 0 0 1-.138-.693Z"/><path d="M14 8.7a.5.5 0 1 1-1 0 .5.5 0 0 1 1 0ZM14 13a.5.5 0 1 1-1 0 .5.5 0 0 1 1 0ZM12 9.7a.5.5 0 1 1-1 0 .5.5 0 0 1 1 0ZM12 12a.5.5 0 1 1-1 0 .5.5 0 0 1 1 0ZM16 9.7a.5.5 0 1 1-1 0 .5.5 0 0 1 1 0ZM16 12a.5.5 0 1 1-1 0 .5.5 0 0 1 1 0Z"/></symbol><symbol viewBox="0 0 24 24" id="bookmark" xmlns="http://www.w3.org/2000/svg"><path d="M17.25 3H6.75a1.5 1.5 0 0 0-1.5 1.5V21a.75.75 0 0 0 1.147.636L12 18.134l5.603 3.502A.75.75 0 0 0 18.75 21V4.5a1.5 1.5 0 0 0-1.5-1.5Zm0 16.647-4.853-3.033a.75.75 0 0 0-.795 0L6.75 19.647V4.5h10.5v15.147Z"/></symbol><symbol viewBox="0 0 24 24" id="call-function" xmlns="http://www.w3.org/2000/svg"><path fill-rule="evenodd" clip-rule="evenodd" d="M7.2 12c0-.322.269-.583.6-.583h8.4c.331 0 .6.26.6.583a.592.592 0 0 1-.6.583H7.8A.592.592 0 0 1 7.2 12Z"/><path fill-rule="evenodd" clip-rule="evenodd" d="M15.201 5H17.4c.331 0 .6.261.6.583a.592.592 0 0 1-.6.584h-2.197c-.422 0-.83.145-1.154.408a1.748 1.748 0 0 0-.619 1.031l-1.68 8.997v.001a2.908 2.908 0 0 1-1.03 1.716 3.06 3.06 0 0 1-1.921.68H6.6a.592.592 0 0 1-.6-.583c0-.323.269-.584.6-.584h2.197c.422 0 .83-.145 1.154-.408.323-.263.542-.628.619-1.03 0 0 0-.001 0 0l1.68-8.998v-.001a2.908 2.908 0 0 1 1.03-1.717A3.06 3.06 0 0 1 15.201 5Z"/></symbol><symbol viewBox="0 0 24 24" id="caret-down" xmlns="http://www.w3.org/2000/svg"><path fill-rule="evenodd" clip-rule="evenodd" d="M5.47 8.47a.75.75 0 0 1 1.06 0l5.27 5.27 5.27-5.27a.75.75 0 1 1 1.06 1.06l-5.8 5.8a.75.75 0 0 1-1.06 0l-5.8-5.8a.75.75 0 0 1 0-1.06Z"/></symbol><symbol viewBox="0 0 24 24" id="caret-left" xmlns="http://www.w3.org/2000/svg"><path fill-rule="evenodd" clip-rule="evenodd" d="M14.28 5.47a.75.75 0 0 1 0 1.06l-5.22 5.22 5.22 5.22a.75.75 0 1 1-1.06 1.06l-5.75-5.75a.75.75 0 0 1 0-1.06l5.75-5.75a.75.75 0 0 1 1.06 0Z"/></symbol><symbol viewBox="0 0 24 24" id="caret-right" xmlns="http://www.w3.org/2000/svg"><path fill-rule="evenodd" clip-rule="evenodd" d="M8.47 5.47a.75.75 0 0 1 1.06 0l5.8 5.8a.75.75 0 0 1 0 1.06l-5.8 5.8a.75.75 0 0 1-1.06-1.06l5.27-5.27-5.27-5.27a.75.75 0 0 1 0-1.06Z"/></symbol><symbol viewBox="0 0 24 24" id="caret-up" xmlns="http://www.w3.org/2000/svg"><path fill-rule="evenodd" clip-rule="evenodd" d="M11.27 8.47a.75.75 0 0 1 1.06 0l5.8 5.8a.75.75 0 1 1-1.06 1.06l-5.27-5.27-5.27 5.27a.75.75 0 0 1-1.06-1.06l5.8-5.8Z"/></symbol><symbol viewBox="0 0 24 24" id="check" xmlns="http://www.w3.org/2000/svg"><path fill-rule="evenodd" clip-rule="evenodd" d="M20.78 6.22a.75.75 0 0 1 0 1.06L10.134 17.927a1.25 1.25 0 0 1-1.768 0L3.22 12.78a.75.75 0 1 1 1.06-1.06l4.97 4.97L19.72 6.22a.75.75 0 0 1 1.06 0Z"/></symbol><symbol viewBox="0 0 24 24" id="check-circle" xmlns="http://www.w3.org/2000/svg"><path d="M16.148 9.352a.563.563 0 0 1 0 .796l-5.25 5.25a.563.563 0 0 1-.796 0l-2.25-2.25a.563.563 0 0 1 .796-.796l1.852 1.852 4.852-4.852a.562.562 0 0 1 .796 0ZM21.563 12A9.562 9.562 0 1 1 12 2.437 9.574 9.574 0 0 1 21.563 12Zm-1.125 0A8.437 8.437 0 1 0 12 20.438 8.447 8.447 0 0 0 20.438 12Z"/></symbol><symbol viewBox="0 0 24 24" id="circle" xmlns="http://www.w3.org/2000/svg"><path d="M21.5 11.75A9.75 9.75 0 1 1 11.75 2a9.76 9.76 0 0 1 9.75 9.75Zm-1.5 0A8.25 8.25 0 1 0 11.75 20 8.26 8.26 0 0 0 20 11.75Z" fill-rule="evenodd" clip-rule="evenodd"/></symbol><symbol viewBox="0 0 24 24" id="close" xmlns="http://www.w3.org/2000/svg"><path fill-rule="evenodd" d="M19.28 4.72a.75.75 0 0 1 0 1.06l-13.5 13.5a.75.75 0 0 1-1.06-1.06l13.5-13.5a.75.75 0 0 1 1.06 0Z" clip-rule="evenodd"/><path fill-rule="evenodd" d="M4.72 4.72a.75.75 0 0 1 1.06 0l13.5 13.5a.75.75 0 1 1-1.06 1.06L4.72 5.78a.75.75 0 0 1 0-1.06Z" clip-rule="evenodd"/></symbol><symbol viewBox="0 0 24 24" id="comment" xmlns="http://www.w3.org/2000/svg"><path fill-rule="evenodd" clip-rule="evenodd" d="M3.75 5.786A.214.214 0 0 0 3.536 6v14.885a.215.215 0 0 0 .35.162L6.91 18.52c.23-.197.522-.306.824-.306H20.25a.214.214 0 0 0 .214-.214V6a.214.214 0 0 0-.214-.214H3.75Zm3.506 13.142.344.411-3.028 2.531-.002.002a1.286 1.286 0 0 1-2.106-.98V6A1.286 1.286 0 0 1 3.75 4.714h16.5A1.286 1.286 0 0 1 21.536 6v12a1.286 1.286 0 0 1-1.286 1.286H7.734a.197.197 0 0 0-.127.047l-.35-.405Z"/><path d="M11.732 12.59a.857.857 0 1 0 0-1.715.857.857 0 0 0 0 1.714Zm-4.5 0a.857.857 0 1 0 0-1.715.857.857 0 0 0 0 1.714Zm9 0a.857.857 0 1 0 0-1.715.857.857 0 0 0 0 1.714Z"/></symbol><symbol viewBox="0 0 24 24" id="connection" xmlns="http://www.w3.org/2000/svg"><path d="M13.125 19.125a1.125 1.125 0 1 1-2.25 0 1.125 1.125 0 0 1 2.25 0Zm9.101-10.969a16.125 16.125 0 0 0-20.452 0 .75.75 0 1 0 .952 1.16 14.625 14.625 0 0 1 18.548 0 .75.75 0 1 0 .952-1.16ZM19.22 11.51a11.625 11.625 0 0 0-14.432 0 .75.75 0 1 0 .932 1.175 10.125 10.125 0 0 1 12.568 0 .75.75 0 1 0 .932-1.175Zm-3.024 3.352a7.13 7.13 0 0 0-8.384 0 .75.75 0 1 0 .883 1.213 5.625 5.625 0 0 1 6.617 0 .75.75 0 1 0 .884-1.213Z"/></symbol><symbol viewBox="0 0 24 24" id="copy" xmlns="http://www.w3.org/2000/svg"><path fill-rule="evenodd" d="M7.879 1.879A3 3 0 0 1 10 1h4.685a3 3 0 0 1 2.097.855l3.315 3.242A3 3 0 0 1 21 7.242V16a3 3 0 0 1-3 3h-8a3 3 0 0 1-3-3V4a3 3 0 0 1 .879-2.121ZM10 3a1 1 0 0 0-1 1v12a1 1 0 0 0 1 1h8a1 1 0 0 0 1-1V7.242a1.001 1.001 0 0 0-.301-.715l-3.315-3.242A1 1 0 0 0 14.685 3H10Z" clip-rule="evenodd"/><path fill-rule="evenodd" d="M6 8a1 1 0 0 0-1 1v11a1 1 0 0 0 1 1h8a1 1 0 0 0 1-1v-2a1 1 0 1 1 2 0v2a3 3 0 0 1-3 3H6a3 3 0 0 1-3-3V9a3 3 0 0 1 3-3h2a1 1 0 0 1 0 2H6Z" clip-rule="evenodd"/></symbol><symbol viewBox="0 0 24 24" id="cube" xmlns="http://www.w3.org/2000/svg"><path fill-rule="evenodd" d="M11.17.215a1.708 1.708 0 0 1 1.66 0l9.307 5.173A1.673 1.673 0 0 1 23 6.845v10.31a1.677 1.677 0 0 1-.862 1.457l-9.308 5.173a1.71 1.71 0 0 1-1.66 0l-9.307-5.173a1.683 1.683 0 0 1-.632-.613A1.657 1.657 0 0 1 1 17.155V6.845a1.663 1.663 0 0 1 .863-1.457L11.17.215ZM12 1.672 2.692 6.845v10.31L12 22.328l9.308-5.173V6.845L12 1.672Z" clip-rule="evenodd"/><path fill-rule="evenodd" d="M1.108 6.415c.23-.39.75-.53 1.164-.313l9.825 5.165 9.625-5.16c.41-.22.933-.085 1.166.302.233.388.09.88-.32 1.1l-10.044 5.386a.9.9 0 0 1-.839.003L1.439 7.512c-.412-.217-.56-.708-.33-1.097Z" clip-rule="evenodd"/><path fill-rule="evenodd" d="M12.064 12c.521.004.94.357.936.789l-.11 10.436c-.006.432-.432.779-.954.775-.521-.004-.94-.357-.936-.788l.11-10.437c.006-.432.432-.779.954-.775Z" clip-rule="evenodd"/></symbol><symbol viewBox="0 0 24 24" id="cut" xmlns="http://www.w3.org/2000/svg"><path fill-rule="evenodd" d="M7 16a2 2 0 1 0 0 4 2 2 0 0 0 0-4Zm-4 2a4 4 0 1 1 8 0 4 4 0 0 1-8 0Z" clip-rule="evenodd"/><path fill-rule="evenodd" d="M6.445 2.168a1 1 0 0 1 1.387.277l4.987 7.481.025.038 2.988 4.481a1 1 0 1 1-1.664 1.11L12 12.303l-2.168 3.252a1 1 0 0 1-1.664-1.11l2.63-3.945-4.63-6.945a1 1 0 0 1 .277-1.387Zm11.11 0a1 1 0 0 1 .277 1.387l-3 4.5a1 1 0 1 1-1.664-1.11l3-4.5a1 1 0 0 1 1.387-.277Z" clip-rule="evenodd"/><path fill-rule="evenodd" d="M17 16a2 2 0 1 0 0 4 2 2 0 0 0 0-4Zm-4 2a4 4 0 1 1 8 0 4 4 0 0 1-8 0Z" clip-rule="evenodd"/></symbol><symbol viewBox="0 0 24 24" id="delete" xmlns="http://www.w3.org/2000/svg"><path d="M12 1.75a3.25 3.25 0 0 1 3.245 3.066L15.25 5h5.25a.75.75 0 0 1 .102 1.493L20.5 6.5h-.796l-1.28 13.02a2.75 2.75 0 0 1-2.561 2.474l-.176.006H8.313a2.75 2.75 0 0 1-2.714-2.307l-.023-.174L4.295 6.5H3.5a.75.75 0 0 1-.743-.648L2.75 5.75a.75.75 0 0 1 .648-.743L3.5 5h5.25A3.25 3.25 0 0 1 12 1.75Zm6.197 4.75H5.802l1.267 12.872a1.25 1.25 0 0 0 1.117 1.122l.127.006h7.374c.6 0 1.109-.425 1.225-1.002l.02-.126L18.196 6.5h.001ZM13.75 9.25a.75.75 0 0 1 .743.648L14.5 10v7a.75.75 0 0 1-1.493.102L13 17v-7a.75.75 0 0 1 .75-.75Zm-3.5 0a.75.75 0 0 1 .743.648L11 10v7a.75.75 0 0 1-1.493.102L9.5 17v-7a.75.75 0 0 1 .75-.75Zm1.75-6a1.75 1.75 0 0 0-1.744 1.606L10.25 5h3.5A1.75 1.75 0 0 0 12 3.25Z"/></symbol><symbol viewBox="0 0 24 24" id="dots-three-list" xmlns="http://www.w3.org/2000/svg"><circle cx="12.5" cy="11.5" r="1.5" transform="rotate(90 12.5 11.5)"/><circle cx="12.5" cy="4.5" r="1.5" transform="rotate(90 12.5 4.5)"/><circle cx="12.5" cy="18.5" r="1.5" transform="rotate(90 12.5 18.5)"/></symbol><symbol viewBox="0 0 24 24" id="dots-three-more" xmlns="http://www.w3.org/2000/svg"><path d="M14 11.5a1.5 1.5 0 1 1-3 0 1.5 1.5 0 0 1 3 0ZM7 11.5a1.5 1.5 0 1 1-3 0 1.5 1.5 0 0 1 3 0ZM21 11.5a1.5 1.5 0 1 1-3 0 1.5 1.5 0 0 1 3 0Z"/></symbol><symbol viewBox="0 0 24 24" id="drag" xmlns="http://www.w3.org/2000/svg"><path d="M8.5 13a1.5 1.5 0 1 1 0-3 1.5 1.5 0 0 1 0 3ZM8.5 6a1.5 1.5 0 1 1 0-3 1.5 1.5 0 0 1 0 3ZM8.5 20a1.5 1.5 0 1 1 0-3 1.5 1.5 0 0 1 0 3ZM14.5 13a1.5 1.5 0 1 1 0-3 1.5 1.5 0 0 1 0 3ZM14.5 6a1.5 1.5 0 1 1 0-3 1.5 1.5 0 0 1 0 3ZM14.5 20a1.5 1.5 0 1 1 0-3 1.5 1.5 0 0 1 0 3Z"/></symbol><symbol viewBox="0 0 24 24" id="else" xmlns="http://www.w3.org/2000/svg"><path fill-rule="evenodd" clip-rule="evenodd" d="M15.092 15.082a.677.677 0 0 1 .955-.086l2.71 2.258a.677.677 0 0 1 0 1.04l-2.71 2.259a.677.677 0 0 1-.868-1.041l2.085-1.738-2.085-1.738a.677.677 0 0 1-.087-.954ZM15.092 8.76a.677.677 0 0 1 .955-.087l2.71 2.258a.678.678 0 0 1 0 1.041l-2.71 2.258a.677.677 0 0 1-.868-1.04l2.085-1.738-2.085-1.738a.677.677 0 0 1-.087-.954ZM6.355 5.355v2.258h2.258V5.355H6.355ZM5 5.129C5 4.505 5.505 4 6.129 4h2.71c.623 0 1.129.505 1.129 1.129v2.71c0 .623-.506 1.129-1.13 1.129H6.13A1.129 1.129 0 0 1 5 7.838V5.13Z"/><path fill-rule="evenodd" clip-rule="evenodd" d="M7.484 8.516c.374 0 .677.303.677.678v5.87c0 .76.22 1.209.594 1.496.412.317 1.135.537 2.342.537h5.87a.677.677 0 1 1 0 1.355h-5.87c-1.322 0-2.406-.232-3.168-.818-.8-.616-1.123-1.523-1.123-2.57v-5.87c0-.375.304-.678.678-.678Z"/><path fill-rule="evenodd" clip-rule="evenodd" d="M7.484 7.613c.374 0 .677.303.677.677v.452c0 .76.22 1.208.594 1.495.412.317 1.135.537 2.342.537h5.87a.677.677 0 1 1 0 1.355h-5.87c-1.322 0-2.406-.232-3.168-.818-.8-.616-1.123-1.523-1.123-2.57v-.45c0-.375.304-.678.678-.678Z"/></symbol><symbol viewBox="0 0 24 24" id="else-if" xmlns="http://www.w3.org/2000/svg"><path fill-rule="evenodd" clip-rule="evenodd" d="M7.121 5.273v2.12h2.121v-2.12h-2.12Zm1.704 3.394h.63a1.06 1.06 0 0 0 1.06-1.06V5.06A1.06 1.06 0 0 0 9.455 4H6.909a1.06 1.06 0 0 0-1.06 1.06v2.546c0 .586.474 1.06 1.06 1.06h.641l.006.097a.64.64 0 0 0-.01.116v7.797l-1.46-1.46a.636.636 0 0 0-.9.9l2.546 2.546a.637.637 0 0 0 .9 0l2.545-2.545a.636.636 0 1 0-.9-.9l-1.459 1.459V11.02c.699.44 1.637.616 2.758.616h5.03l-1.195.996a.636.636 0 0 0 .815.978l2.545-2.121a.636.636 0 0 0 0-.978L16.226 8.39a.636.636 0 0 0-.815.978l1.195.996h-5.03c-1.134 0-1.813-.207-2.2-.505-.315-.242-.514-.605-.551-1.192Z"/></symbol><symbol viewBox="0 0 24 24" id="error" xmlns="http://www.w3.org/2000/svg"><path fill-rule="evenodd" clip-rule="evenodd" d="M12 3.75a8.25 8.25 0 1 0 0 16.5 8.25 8.25 0 0 0 0-16.5ZM2.25 12c0-5.385 4.365-9.75 9.75-9.75s9.75 4.365 9.75 9.75-4.365 9.75-9.75 9.75S2.25 17.385 2.25 12Z"/><path fill-rule="evenodd" clip-rule="evenodd" d="M12 6.75a.75.75 0 0 1 .75.75v5.25a.75.75 0 0 1-1.5 0V7.5a.75.75 0 0 1 .75-.75Z"/><path d="M12 17.25A1.125 1.125 0 1 0 12 15a1.125 1.125 0 0 0 0 2.25Z"/></symbol><symbol viewBox="0 0 24 24" id="export" xmlns="http://www.w3.org/2000/svg"><path fill-rule="evenodd" clip-rule="evenodd" d="M16.718 7.468a.75.75 0 0 1-1.06 0L12.25 4.06 8.843 7.468a.75.75 0 0 1-1.06-1.06L11.72 2.47a.75.75 0 0 1 1.06 0l3.938 3.937a.75.75 0 0 1 0 1.06Z"/><path fill-rule="evenodd" clip-rule="evenodd" d="M12.25 14.25a.75.75 0 0 1-.75-.75V3A.75.75 0 0 1 13 3v10.5a.75.75 0 0 1-.75.75Z"/><path fill-rule="evenodd" clip-rule="evenodd" d="M4 12.75a.75.75 0 0 1 .75.75v5.25h15V13.5a.75.75 0 0 1 1.5 0v5.25a1.5 1.5 0 0 1-1.5 1.5h-15a1.5 1.5 0 0 1-1.5-1.5V13.5a.75.75 0 0 1 .75-.75Z"/></symbol><symbol viewBox="0 0 24 24" id="external-link" xmlns="http://www.w3.org/2000/svg"><path fill-rule="evenodd" d="M13.875 3.75a.75.75 0 0 1 .75-.75h5.625a.75.75 0 0 1 .75.75v5.625a.75.75 0 0 1-1.5 0V4.5h-4.875a.75.75 0 0 1-.75-.75Z"/><path fill-rule="evenodd" d="M20.78 3.22a.75.75 0 0 1 0 1.06l-6.75 6.75a.75.75 0 1 1-1.06-1.06l6.75-6.75a.75.75 0 0 1 1.06 0Z"/><path fill-rule="evenodd" d="M3.44 6.44A1.5 1.5 0 0 1 4.5 6h6a.75.75 0 0 1 0 1.5h-6v12h12v-6a.75.75 0 0 1 1.5 0v6a1.5 1.5 0 0 1-1.5 1.5h-12A1.5 1.5 0 0 1 3 19.5v-12c0-.398.158-.78.44-1.06Z"/></symbol><symbol viewBox="0 0 24 24" id="file-folder" xmlns="http://www.w3.org/2000/svg"><path fill-rule="evenodd" clip-rule="evenodd" d="M2.69 4.94a1.5 1.5 0 0 1 1.06-.44h5c.322.001.636.106.894.298l.003.002 2.603 1.95h8a1.5 1.5 0 0 1 1.5 1.5v10.5a1.5 1.5 0 0 1-1.5 1.5H3.75a1.5 1.5 0 0 1-1.5-1.5V6c0-.398.158-.78.44-1.06Zm8.06 2.56-2-1.498A.01.01 0 0 0 8.743 6H3.75v3h4.994a.01.01 0 0 0 .005-.002l2-1.498Zm-7 3v8.25h16.5V8.25h-8l-2.606 1.952a1.509 1.509 0 0 1-.894.298h-5Z"/></symbol><symbol viewBox="0 0 24 24" id="filter" xmlns="http://www.w3.org/2000/svg"><path fill-rule="evenodd" clip-rule="evenodd" d="M3.75 15.374h10.125a.75.75 0 0 1 0 1.5H3.75a.75.75 0 0 1 0-1.5ZM16.875 16.124a.75.75 0 0 1 .75-.75h2.625a.75.75 0 0 1 0 1.5h-2.625a.75.75 0 0 1-.75-.75Z"/><path fill-rule="evenodd" clip-rule="evenodd" d="M15.75 15a1.125 1.125 0 1 0 0 2.25 1.125 1.125 0 0 0 0-2.25Zm-2.625 1.124a2.625 2.625 0 1 1 5.25 0 2.625 2.625 0 0 1-5.25 0ZM3 7.874a.75.75 0 0 1 .75-.75h4.125a.75.75 0 0 1 0 1.5H3.75a.75.75 0 0 1-.75-.75ZM11.625 7.124h8.625a.75.75 0 0 1 0 1.5h-8.625a.75.75 0 1 1 0-1.5Z"/><path fill-rule="evenodd" clip-rule="evenodd" d="M9.75 6.75a1.125 1.125 0 1 0 0 2.25 1.125 1.125 0 0 0 0-2.25ZM7.125 7.873a2.625 2.625 0 1 1 5.25 0 2.625 2.625 0 0 1-5.25 0Z"/></symbol><symbol viewBox="0 0 24 24" id="folder" xmlns="http://www.w3.org/2000/svg"><path fill-rule="evenodd" clip-rule="evenodd" d="M2.928 4.438C3.202 4.158 3.574 4 3.962 4h4.871c.314.001.62.105.872.297l.002.002 2.537 1.942.005.002h7.79c.387 0 .759.157 1.033.438.274.28.428.66.428 1.057v10.55c0 .375-.145.734-.404.999-.259.264-.61.413-.975.413H3.96c-.387 0-.759-.157-1.033-.438a1.513 1.513 0 0 1-.428-1.057V5.495c0-.396.154-.777.428-1.057Zm5.9 1.057H3.962v12.71h16.076V7.738H12.244a1.45 1.45 0 0 1-.872-.297l-.002-.001-2.537-1.943-.005-.002Z"/></symbol><symbol viewBox="0 0 24 24" id="freedrive" xmlns="http://www.w3.org/2000/svg"><path d="M17.706 5.62c-.34 0-.677.076-.984.222v-.549a2.292 2.292 0 0 0-1.937-2.265 2.296 2.296 0 0 0-2.54 1.56 2.295 2.295 0 0 0-3.39 2.015v6.176l-.573-.993a2.295 2.295 0 0 0-3.989 2.269C6.953 19.658 8.723 22 12.79 22A7.213 7.213 0 0 0 20 14.793v-6.88a2.295 2.295 0 0 0-2.294-2.292Zm.983 9.173a5.902 5.902 0 0 1-5.9 5.897c-1.654 0-2.805-.447-3.85-1.494-1.024-1.027-2.03-2.685-3.471-5.725a.666.666 0 0 0-.025-.047.982.982 0 1 1 1.703-.982l1.797 3.11a.655.655 0 0 0 1.223-.328v-8.62a.982.982 0 0 1 1.967 0v5.568a.655.655 0 0 0 1.311 0V5.293a.983.983 0 0 1 1.967 0v6.88a.655.655 0 1 0 1.311 0v-4.26a.983.983 0 0 1 1.967 0v6.88Z"/></symbol><symbol viewBox="0 0 24 24" id="function" xmlns="http://www.w3.org/2000/svg"><path fill-rule="evenodd" clip-rule="evenodd" d="M5.2 12c0-.322.269-.583.6-.583h8.4c.331 0 .6.26.6.583a.592.592 0 0 1-.6.583H5.8A.592.592 0 0 1 5.2 12Z"/><path fill-rule="evenodd" clip-rule="evenodd" d="M13.201 5H15.4c.331 0 .6.261.6.583a.592.592 0 0 1-.6.584h-2.197c-.422 0-.83.145-1.154.408a1.748 1.748 0 0 0-.619 1.031l-1.68 8.997v.001a2.908 2.908 0 0 1-1.03 1.716 3.06 3.06 0 0 1-1.921.68H4.6a.592.592 0 0 1-.6-.583c0-.323.269-.584.6-.584h2.197c.422 0 .83-.145 1.154-.408.323-.263.542-.628.619-1.03 0 0 0-.001 0 0l1.68-8.998v-.001a2.908 2.908 0 0 1 1.03-1.717A3.06 3.06 0 0 1 13.201 5ZM13.688 14.61a.5.5 0 0 1 .702.078l4 5a.5.5 0 0 1-.78.624l-4-5a.5.5 0 0 1 .078-.702Z"/><path fill-rule="evenodd" clip-rule="evenodd" d="M18.312 14.61a.5.5 0 0 0-.702.078l-4 5a.5.5 0 0 0 .78.624l4-5a.5.5 0 0 0-.078-.702Z"/></symbol><symbol viewBox="0 0 24 24" id="global-variables" xmlns="http://www.w3.org/2000/svg"><path fill-rule="evenodd" clip-rule="evenodd" d="M5.725 5.37C6.175 5.118 6.729 5 7.393 5c.331 0 .6.28.6.625a.613.613 0 0 1-.6.625c-.534 0-.878.096-1.103.222a1.05 1.05 0 0 0-.455.5c-.227.488-.24 1.185-.24 2.09v.078c0 .8.001 1.783-.36 2.558-.14.303-.335.577-.599.802.264.225.46.5.6.802.36.775.36 1.759.36 2.558v.078c0 .905.012 1.602.24 2.09.1.216.24.38.454.5.225.126.569.222 1.103.222.331 0 .6.28.6.625a.613.613 0 0 1-.6.625c-.664 0-1.219-.119-1.668-.37a2.278 2.278 0 0 1-.968-1.056c-.36-.776-.36-1.76-.36-2.56v-.076c0-.906-.013-1.603-.24-2.091a1.05 1.05 0 0 0-.455-.5c-.224-.126-.568-.222-1.103-.222-.33 0-.599-.28-.599-.625s.268-.625.6-.625c.534 0 .878-.096 1.102-.222a1.05 1.05 0 0 0 .455-.5c.227-.488.24-1.185.24-2.09v-.078c0-.8 0-1.783.36-2.558.199-.43.508-.801.968-1.058ZM16.008 5.625c0-.345.268-.625.599-.625.664 0 1.219.119 1.668.37.46.256.769.628.968 1.057.36.775.36 1.759.36 2.558v.078c0 .905.012 1.602.24 2.09.1.216.24.38.455.5.224.126.568.222 1.103.222.33 0 .599.28.599.625a.613.613 0 0 1-.6.625c-.534 0-.878.096-1.102.222a1.05 1.05 0 0 0-.455.5c-.227.488-.24 1.185-.24 2.09v.078c0 .8 0 1.783-.36 2.558-.199.43-.508.801-.968 1.058-.45.25-1.004.369-1.668.369-.331 0-.6-.28-.6-.625s.269-.625.6-.625c.534 0 .878-.096 1.103-.222a1.05 1.05 0 0 0 .455-.5c.227-.488.24-1.185.24-2.09v-.078c0-.8-.001-1.783.36-2.558a2.33 2.33 0 0 1 .599-.802 2.33 2.33 0 0 1-.6-.802c-.36-.775-.36-1.759-.36-2.558v-.078c0-.905-.012-1.602-.24-2.09a1.05 1.05 0 0 0-.454-.5c-.225-.126-.569-.222-1.103-.222-.331 0-.6-.28-.6-.625ZM15.498 9.228c.26.232.29.64.067.91l-5.714 5.954a.602.602 0 0 1-.873.07.665.665 0 0 1-.067-.91l5.714-5.954a.602.602 0 0 1 .873-.07Z"/><path fill-rule="evenodd" clip-rule="evenodd" d="M10.246 9.154a.667.667 0 0 0-.278.87l3.431 5.954a.6.6 0 0 0 .836.257.667.667 0 0 0 .278-.87l-3.431-5.953a.6.6 0 0 0-.836-.258Z"/></symbol><symbol viewBox="0 0 24 24" id="grid-pattern" xmlns="http://www.w3.org/2000/svg"><path fill-rule="evenodd" clip-rule="evenodd" d="M3.964 4.5c0-.296.24-.536.536-.536h6c.296 0 .536.24.536.536v6c0 .296-.24.536-.536.536h-6a.536.536 0 0 1-.536-.536v-6Zm1.072.536v4.928h4.928V5.036H5.036Zm7.928-.536c0-.296.24-.536.536-.536h6c.296 0 .536.24.536.536v6c0 .296-.24.536-.536.536h-6a.536.536 0 0 1-.536-.536v-6Zm1.072.536v4.928h4.928V5.036h-4.928ZM3.964 13.5c0-.296.24-.536.536-.536h6c.296 0 .536.24.536.536v6c0 .296-.24.536-.536.536h-6a.536.536 0 0 1-.536-.536v-6Zm1.072.536v4.928h4.928v-4.928H5.036Zm7.928-.536c0-.296.24-.536.536-.536h6c.296 0 .536.24.536.536v6c0 .296-.24.536-.536.536h-6a.536.536 0 0 1-.536-.536v-6Zm1.072.536v4.928h4.928v-4.928h-4.928Z"/></symbol><symbol viewBox="0 0 24 24" id="grid-update" xmlns="http://www.w3.org/2000/svg"><path fill-rule="evenodd" clip-rule="evenodd" d="M3.964 4.5c0-.296.24-.536.536-.536h6c.296 0 .536.24.536.536v6c0 .296-.24.536-.536.536h-6a.536.536 0 0 1-.536-.536v-6Zm1.072.536v4.928h4.928V5.036H5.036ZM3.964 13.5c0-.296.24-.536.536-.536h6c.296 0 .536.24.536.536v6c0 .296-.24.536-.536.536h-6a.536.536 0 0 1-.536-.536v-6Zm1.072.536v4.928h4.928v-4.928H5.036Zm7.928-.536c0-.296.24-.536.536-.536h6c.296 0 .536.24.536.536v6c0 .296-.24.536-.536.536h-6a.536.536 0 0 1-.536-.536v-6Zm1.072.536v4.928h4.928v-4.928h-4.928Z"/></symbol><symbol viewBox="0 0 24 24" id="gripper" xmlns="http://www.w3.org/2000/svg"><path fill-rule="evenodd" clip-rule="evenodd" d="m10.113 12.099-4.783 6.6 6.565-4.639c.183-.544.198-.94.14-1.216a.945.945 0 0 0-.401-.616c-.389-.265-1.011-.304-1.521-.13Zm2.971.525c.117.56.041 1.216-.24 1.964a.536.536 0 0 1-.192.25l-9.343 6.6a.536.536 0 0 1-.743-.752l6.772-9.343a.536.536 0 0 1 .22-.177c.785-.341 1.887-.364 2.68.177.413.282.726.71.846 1.281Z"/><path fill-rule="evenodd" clip-rule="evenodd" d="M11.062 4.748a.536.536 0 0 1 .567.123l7.5 7.5c.148.149.196.37.122.567l-2.099 5.594a1.276 1.276 0 0 1-.984.821h-.002L3.088 21.529a.536.536 0 0 1-.616-.616L4.647 7.841a1.295 1.295 0 0 1 .815-.992h.003l5.597-2.1ZM5.844 7.851h-.001a.224.224 0 0 0-.14.17L3.651 20.35l12.337-2.052a.205.205 0 0 0 .158-.132l.002-.006 1.98-5.274-7.013-7.012L5.844 7.85Z"/><path fill-rule="evenodd" clip-rule="evenodd" d="M13.753 2.125a1.286 1.286 0 0 1 1.411.282l6.43 6.429a1.287 1.287 0 0 1 0 1.829l-2.465 2.464a.536.536 0 0 1-.758-.758l2.469-2.468a.215.215 0 0 0 0-.306l-.003-.003-6.434-6.434a.214.214 0 0 0-.306 0l-.003.003L11.63 5.63a.536.536 0 0 1-.758-.758l2.464-2.464c.12-.12.262-.217.418-.282Z"/></symbol><symbol viewBox="0 0 24 24" id="helper" xmlns="http://www.w3.org/2000/svg"><path d="M12.008 3a9 9 0 1 0 8.31 5.556A8.993 8.993 0 0 0 12.008 3Zm0 16.706a7.714 7.714 0 1 1 7.706-7.714 7.708 7.708 0 0 1-7.706 7.714Z"/><path d="M12.096 16.395h-.37a.562.562 0 0 0-.562.563v.394a.554.554 0 0 0 .563.554h.385a.555.555 0 0 0 .555-.554v-.394a.562.562 0 0 0-.555-.563h-.016Zm1.776-9.289a3.488 3.488 0 0 0-3.833.217 3.005 3.005 0 0 0-1.245 1.905.603.603 0 0 0 1.18.185c.137-.426.4-.8.756-1.07a2.21 2.21 0 0 1 2.507-.192 1.35 1.35 0 0 1 .643 1.037 1.687 1.687 0 0 1-.538 1.374l-.33.313a3.682 3.682 0 0 0-1.607 2.837c0 .634-.056 1.1-.056 1.133a.609.609 0 0 0 .579.65.619.619 0 0 0 .61-.602s0-.498.04-1.101c.049-.932.426-1.262 1.158-1.92l.337-.314a2.981 2.981 0 0 0 .973-2.41 2.62 2.62 0 0 0-1.174-2.042Z"/></symbol><symbol viewBox="0 0 24 24" id="if" xmlns="http://www.w3.org/2000/svg"><path fill-rule="evenodd" clip-rule="evenodd" d="M15.092 15.082a.677.677 0 0 1 .955-.086l2.71 2.258a.678.678 0 0 1 0 1.04l-2.71 2.259a.677.677 0 0 1-.868-1.041l2.085-1.738-2.085-1.737a.677.677 0 0 1-.087-.954ZM6.355 5.355v2.258h2.258V5.355H6.355ZM5 5.129C5 4.505 5.505 4 6.129 4h2.71c.623 0 1.129.505 1.129 1.129v2.71c0 .623-.506 1.129-1.13 1.129H6.13A1.129 1.129 0 0 1 5 7.838V5.13Z"/><path fill-rule="evenodd" clip-rule="evenodd" d="M7.484 8.516c.374 0 .677.303.677.678v5.87c0 .76.22 1.209.594 1.496.412.317 1.135.537 2.342.537h5.87a.677.677 0 1 1 0 1.355h-5.87c-1.322 0-2.406-.232-3.168-.818-.8-.616-1.123-1.523-1.123-2.57v-5.87c0-.375.304-.678.678-.678Z"/></symbol><symbol viewBox="0 0 24 24" id="import" xmlns="http://www.w3.org/2000/svg"><path clip-rule="evenodd" d="M7.782 9.032a.75.75 0 0 1 1.06 0l3.408 3.407 3.407-3.407a.75.75 0 1 1 1.06 1.06L12.78 14.03a.75.75 0 0 1-1.06 0l-3.938-3.937a.75.75 0 0 1 0-1.06Z" fill-rule="evenodd"/><path clip-rule="evenodd" d="M12.25 2.25A.75.75 0 0 1 13 3v10.5a.75.75 0 0 1-1.5 0V3a.75.75 0 0 1 .75-.75Z" fill-rule="evenodd"/><path clip-rule="evenodd" d="M4 12.75a.75.75 0 0 1 .75.75v5.25h15V13.5a.75.75 0 0 1 1.5 0v5.25a1.5 1.5 0 0 1-1.5 1.5h-15a1.5 1.5 0 0 1-1.5-1.5V13.5a.75.75 0 0 1 .75-.75Z" fill-rule="evenodd"/></symbol><symbol viewBox="0 0 24 24" id="inertia" xmlns="http://www.w3.org/2000/svg"><path d="M17.8 18.62a.612.612 0 0 0 .129.853.612.612 0 0 0 .853-.13l-.982-.723Zm-5.767-6.537.36-.493v.003c0-.003 0-.003-.003-.003l-.016-.013c-.02-.014-.047-.037-.08-.063a6.877 6.877 0 0 1-1.17-1.243c-.615-.843-1.111-1.958-.867-3.227l-1.2-.229c-.327 1.733.364 3.191 1.081 4.173a8.143 8.143 0 0 0 1.492 1.554l.03.023c.003.004.006.004.01.007 0 0 .003 0 .003.003l.36-.492Zm-1.775-5.04c.317-1.673 1.444-2.486 2.562-2.903a6.737 6.737 0 0 1 2.004-.39c.06 0 .102-.003.129-.003h.036l.013-.608c.017-.609.017-.609.014-.609h-.067a7.121 7.121 0 0 0-.747.046A7.782 7.782 0 0 0 12.397 3c-1.366.506-2.913 1.587-3.34 3.815l1.2.229Zm1.775 5.04.278.545h-.004c.004 0 .004-.003.004-.003.006-.003.013-.007.023-.01a4.456 4.456 0 0 1 .476-.192 6.08 6.08 0 0 1 1.313-.314c1.051-.132 2.288.01 3.293 1.005l.857-.87c-1.366-1.348-3.036-1.504-4.299-1.345a7.58 7.58 0 0 0-2.034.555c-.052.024-.099.043-.128.06l-.037.017c-.003.003-.01.006-.01.006h-.006v.003l.274.543Zm5.383 1.031c1.296 1.277 1.386 2.626 1.16 3.68a5.177 5.177 0 0 1-.482 1.33 4.714 4.714 0 0 1-.215.38c-.026.04-.05.073-.063.092-.006.01-.013.017-.013.02l-.003.004.489.36.493.364v-.004c.003 0 .003-.003.003-.003l.01-.01.023-.04c.023-.03.053-.072.09-.128.069-.113.165-.271.267-.473.209-.397.453-.966.595-1.637.291-1.369.156-3.17-1.497-4.804l-.857.87Zm-14.499 1.17-.542.275c0 .004 0 .004.003.007 0 0 .003.006.003.01.007.01.014.02.02.036l.07.123a6.423 6.423 0 0 0 1.323 1.58c.958.83 2.44 1.577 4.433 1.184l-.235-1.194c-1.534.301-2.648-.258-3.402-.912a5.319 5.319 0 0 1-1.068-1.277 1.015 1.015 0 0 1-.05-.086c-.003-.01-.006-.013-.01-.02l-.545.275Zm5.31 3.215c2.017-.397 3.125-1.782 3.717-3.003a7.77 7.77 0 0 0 .688-2.291c.003-.02.006-.033.006-.043v-.013l.004-.003v-.004l-.609-.06-.605-.059v.007c-.003.003-.003.013-.003.026l-.017.113a6.793 6.793 0 0 1-.562 1.799c-.493 1.014-1.346 2.04-2.854 2.337l.235 1.194Z"/><path fill-rule="evenodd" clip-rule="evenodd" d="M12 3.219A8.779 8.779 0 0 0 3.219 12 8.779 8.779 0 0 0 12 20.781 8.779 8.779 0 0 0 20.781 12 8.779 8.779 0 0 0 12 3.219ZM2 12C2 6.475 6.475 2 12 2c5.524 0 10 4.475 10 10 0 5.524-4.476 10-10 10-5.525 0-10-4.476-10-10Z"/></symbol><symbol viewBox="0 0 24 24" id="info" xmlns="http://www.w3.org/2000/svg"><path d="M12 2.57c-1.93 0-3.813.563-5.418 1.614a9.605 9.605 0 0 0-3.59 4.3 9.421 9.421 0 0 0-.554 5.532 9.522 9.522 0 0 0 2.667 4.906 9.816 9.816 0 0 0 4.993 2.621c1.89.371 3.851.18 5.632-.543a9.708 9.708 0 0 0 4.375-3.531 9.432 9.432 0 0 0 1.645-5.32 9.503 9.503 0 0 0-2.86-6.77A9.83 9.83 0 0 0 12 2.57Zm0 17.684a8.346 8.346 0 0 1-4.582-1.367 8.127 8.127 0 0 1-3.04-3.637 7.952 7.952 0 0 1-.468-4.684 8.031 8.031 0 0 1 2.258-4.148 8.286 8.286 0 0 1 4.223-2.219 8.386 8.386 0 0 1 4.765.461 8.222 8.222 0 0 1 3.703 2.985 8.011 8.011 0 0 1 1.391 4.503 8.043 8.043 0 0 1-2.418 5.727A8.346 8.346 0 0 1 12 20.254Zm1.5-3.684a.724.724 0 0 1-.219.52.747.747 0 0 1-.531.215 1.51 1.51 0 0 1-1.063-.43 1.463 1.463 0 0 1-.437-1.043v-3.684a.74.74 0 0 1-.75-.738c0-.195.078-.383.219-.52a.764.764 0 0 1 .531-.214c.398 0 .781.152 1.063.43.28.277.437.652.437 1.042v3.684a.74.74 0 0 1 .75.738Zm-3-8.476c0-.215.066-.43.191-.614.121-.18.297-.324.504-.406a1.147 1.147 0 0 1 1.227.239 1.105 1.105 0 0 1 .242 1.207c-.086.199-.23.375-.414.496a1.136 1.136 0 0 1-.625.183c-.297 0-.586-.113-.797-.32a1.102 1.102 0 0 1-.328-.785Zm0 0"/></symbol><symbol viewBox="0 0 24 24" id="joint-move" xmlns="http://www.w3.org/2000/svg"><path fill-rule="evenodd" clip-rule="evenodd" d="M18.75 17.036a1.714 1.714 0 1 0 0 3.428 1.714 1.714 0 0 0 0-3.428Zm-2.786 1.714a2.786 2.786 0 1 1 5.572 0 2.786 2.786 0 0 1-5.572 0ZM4.307 3.279a1.714 1.714 0 1 0 0 3.428 1.714 1.714 0 0 0 0-3.428ZM1.521 4.993a2.786 2.786 0 1 1 5.572 0 2.786 2.786 0 0 1-5.572 0Z"/><path fill-rule="evenodd" clip-rule="evenodd" d="M6.214 5.25c0-.296.24-.536.536-.536h9a3.536 3.536 0 0 1 0 7.072h-9a3.214 3.214 0 0 0 0 6.428h9.75a.536.536 0 0 1 0 1.072H6.75a4.286 4.286 0 1 1 0-8.572h9a2.464 2.464 0 0 0 0-4.928h-9a.536.536 0 0 1-.536-.536Z"/></symbol><symbol viewBox="0 0 24 24" id="joints" xmlns="http://www.w3.org/2000/svg"><path d="M19.22 14.18c.74-.89 1.21-2.02 1.21-3.27 0-2.78-2.22-5.04-4.97-5.13L7.58 3.05a.868.868 0 0 0-1.08.46L4.08 8.88c-.18.39-.05.85.31 1.08l6.73 4.47-.99 5.1c-.07.34.02.68.24.95.22.27.54.42.89.42h7.95c.35 0 .67-.15.89-.42.22-.27.3-.62.23-.96l-1.11-5.33v-.01Zm-.29-3.27c0 2.01-1.64 3.65-3.65 3.65s-3.65-1.64-3.65-3.65 1.64-3.65 3.65-3.65 3.65 1.64 3.65 3.65ZM7.63 4.65l5.13 1.77c-1.57.88-2.65 2.55-2.65 4.47 0 .4.06.78.14 1.16L5.67 9.01l1.96-4.36Zm4.05 14.74.81-4.16c.8.52 1.76.83 2.78.83.97 0 1.87-.29 2.65-.76l.86 4.09h-7.1Z"/></symbol><symbol viewBox="0 0 24 24" id="left" xmlns="http://www.w3.org/2000/svg"><defs><style>.c,.e{fill:none}.c{stroke:#000;stroke-miterlimit:10;stroke-width:.2px}.d{stroke:none}</style></defs><path d="M15 16.59 10.42 12 15 7.41 13.59 6l-6 6 6 6Z"/></symbol><symbol viewBox="0 0 24 24" id="linear-move" xmlns="http://www.w3.org/2000/svg"><path fill-rule="evenodd" clip-rule="evenodd" d="M6 16.286a1.714 1.714 0 1 0 0 3.428 1.714 1.714 0 0 0 0-3.428ZM3.214 18a2.786 2.786 0 1 1 5.572 0 2.786 2.786 0 0 1-5.572 0ZM18 4.286a1.714 1.714 0 1 0 0 3.428 1.714 1.714 0 0 0 0-3.428ZM15.214 6a2.786 2.786 0 1 1 5.572 0 2.786 2.786 0 0 1-5.572 0Z"/><path fill-rule="evenodd" clip-rule="evenodd" d="M16.785 7.215c.21.21.21.548 0 .758l-8.812 8.812a.536.536 0 1 1-.758-.758l8.813-8.812a.534.534 0 0 1 .757 0Z"/></symbol><symbol viewBox="0 0 24 24" id="locked" xmlns="http://www.w3.org/2000/svg"><path fill-rule="evenodd" clip-rule="evenodd" d="M4 10.083c0-.736.597-1.333 1.333-1.333h13.334c.736 0 1.333.597 1.333 1.333v9.334c0 .736-.597 1.333-1.333 1.333H5.333A1.333 1.333 0 0 1 4 19.417v-9.334Zm14.667 0H5.333v9.334h13.334v-9.334Z"/><path fill-rule="evenodd" clip-rule="evenodd" d="M12 4.083a2.333 2.333 0 0 0-2.333 2.334v3a.667.667 0 0 1-1.334 0v-3a3.667 3.667 0 0 1 7.334 0v3a.667.667 0 0 1-1.334 0v-3A2.333 2.333 0 0 0 12 4.083Z"/><path d="M12 15.75a1 1 0 1 0 0-2 1 1 0 0 0 0 2Z"/></symbol><symbol viewBox="0 0 24 24" id="logo" xmlns="http://www.w3.org/2000/svg"><path d="m22.677 20.534-.445-.463-.13-.133-.23-.239-3.983-4.145s-.994-.935-.035-2.28c0 0 1.388-2.004 1.688-2.503 0 0 .968-1.257.994-3.083h.008c0-.07-.008-.143-.008-.214a1.318 1.318 0 0 0-.009-.178.52.52 0 0 0-.009-.113 2.082 2.082 0 0 0-.017-.231 2.243 2.243 0 0 0-.085-.446 3.492 3.492 0 0 0-.146-.517 3.972 3.972 0 0 0-.96-1.479c-.436-.427-1.01-.775-1.712-1.042-.703-.266-1.568-.392-2.587-.392-1.011 0-1.867.134-2.578.392-.711.267-1.285.615-1.722 1.042-.423.41-.75.915-.957 1.476a4.687 4.687 0 0 0-.3 1.667v9.7c0 .607-.163 1.07-.471 1.39-.308.322-.867.482-1.671.482s-1.362-.16-1.67-.481c-.308-.32-.462-.784-.462-1.39V0H2v17.667c.002.558.094 1.111.274 1.637a3.84 3.84 0 0 0 .891 1.443c.411.427.95.766 1.636 1.025.685.258 1.524.383 2.51.383 1.002 0 1.841-.125 2.518-.383.677-.259 1.225-.598 1.635-1.025.393-.407.695-.9.883-1.443a4.887 4.887 0 0 0 .283-1.637v-4.036l.06-5.683c0-.58.18-1.043.548-1.381.36-.33.96-.5 1.773-.5.608 0 1.097.09 1.457.277.205.134.736.57.788 1.452 0 0 .162 1.15-1.08 2.753 0 0-.993 1.129-1.542 2.343 0 0-.84 1.755-.025 3.572 0 0 .454.847 1.079 1.497l4.188 4.312L21.546 24a.094.094 0 0 1 .035-.018c.068-.035.137-.071.206-.116.08-.043.155-.097.222-.16.349-.28.623-.648.797-1.069.153-.375.402-1.551-.13-2.104Z"/></symbol><symbol viewBox="0 0 24 24" id="loop" xmlns="http://www.w3.org/2000/svg"><path fill-rule="evenodd" clip-rule="evenodd" d="M21.019 4.418c.237 0 .428.192.428.429v4.5a.429.429 0 0 1-.428.428h-4.5a.429.429 0 1 1 0-.857h4.071V4.847c0-.237.192-.429.429-.429ZM2.553 14.653c0-.237.192-.428.428-.428h4.5a.429.429 0 1 1 0 .857H3.41v4.071a.429.429 0 1 1-.857 0v-4.5Z"/><path fill-rule="evenodd" clip-rule="evenodd" d="M11.826 4.307a7.84 7.84 0 0 0-2.865.54 7.498 7.498 0 0 0-2.42 1.535.536.536 0 0 1-.738-.777A8.569 8.569 0 0 1 8.569 3.85a8.91 8.91 0 0 1 3.257-.614 8.91 8.91 0 0 1 3.257.614 8.568 8.568 0 0 1 2.766 1.755l3.09 2.92a.536.536 0 1 1-.736.779l-3.091-2.922a7.498 7.498 0 0 0-2.421-1.534 7.84 7.84 0 0 0-2.865-.54ZM3.04 14.718a.536.536 0 0 1 .757-.022l3.091 2.922a7.496 7.496 0 0 0 2.421 1.534c.908.357 1.881.54 2.865.54.984 0 1.958-.183 2.865-.54a7.495 7.495 0 0 0 2.42-1.534.536.536 0 0 1 .738.777 8.57 8.57 0 0 1-2.766 1.755 8.91 8.91 0 0 1-3.257.614 8.91 8.91 0 0 1-3.257-.614 8.568 8.568 0 0 1-2.766-1.755l-3.09-2.92a.536.536 0 0 1-.022-.757Z"/></symbol><symbol viewBox="0 0 24 24" id="manual" xmlns="http://www.w3.org/2000/svg"><path fill-rule="evenodd" clip-rule="evenodd" d="M12.205 4.89h9.288a.65.65 0 0 1 .65.653l-.035 6.206a.65.65 0 0 1-.63.646l-1.67.052-.761 1.09v.001a3.178 3.178 0 0 1-1.645 1.223l-1.698.544a1.712 1.712 0 0 0-.85.635l-.003.004-1.968 2.72-.002.003a1.036 1.036 0 0 1-1.546.155 1.069 1.069 0 0 1-.3-.476l-.426-1.35a3.41 3.41 0 0 1 .439-2.896l.002-.004 1.652-2.388V9.933l-1.923-.901a.211.211 0 0 0-.127-.018l-3.242.639-1.321 1.196c-.343.31-.761.521-1.213.609a2.483 2.483 0 0 1-1.349-.115l-1.074-.4a.904.904 0 0 1-.56-.67.924.924 0 0 1 .244-.827l.002-.002 2.898-2.928c.394-.4.902-.666 1.454-.755l5.301-.863a2.92 2.92 0 0 1 .413-.008Zm-.238 1.296L6.7 7.045h-.002a1.325 1.325 0 0 0-.735.383l-.002.002L3.48 9.938l.506.188c.206.078.428.097.643.056.216-.042.419-.143.588-.297l1.455-1.317a.65.65 0 0 1 .31-.156l3.43-.675c.311-.059.633-.017.92.118l2.012.942h.001c.2.094.367.244.483.429.115.185.175.398.175.614v2.071a.65.65 0 0 1-.115.37l-1.766 2.552v.001a2.069 2.069 0 0 0-.335.856c-.047.31-.024.627.066.925l.276.875 1.668-2.306a3.012 3.012 0 0 1 1.502-1.114l.006-.002 1.702-.546h.002c.386-.123.728-.376.97-.725l.001-.002.949-1.36a.65.65 0 0 1 .513-.278l1.37-.042.029-4.926h-8.654l-.042-.001a1.62 1.62 0 0 0-.177-.002Z"/><path fill-rule="evenodd" clip-rule="evenodd" d="M13.835 9.862a.65.65 0 0 1-.505.768l-4.1.845-1.36 1.095a.662.662 0 0 1-.085.057 3.626 3.626 0 0 1-.252.178c-.208.134-.59.345-1.033.345h-1a.655.655 0 0 1-.225-.04l-1.727-.638a.9.9 0 0 1-.556-.715.917.917 0 0 1 .27-.785l.493-.481a.65.65 0 0 1 .909.929l-.058.057 1.01.373H6.5c.057 0 .175-.039.332-.14.067-.043.124-.086.17-.12l.005-.005a1.945 1.945 0 0 1 .109-.078l1.422-1.144a.651.651 0 0 1 .276-.13l4.254-.876a.65.65 0 0 1 .768.505Z"/></symbol><symbol viewBox="0 0 24 24" id="minus" xmlns="http://www.w3.org/2000/svg"><path fill-rule="evenodd" d="M4 12a1 1 0 0 1 1-1h14a1 1 0 1 1 0 2H5a1 1 0 0 1-1-1Z" clip-rule="evenodd"/></symbol><symbol viewBox="0 0 24 24" id="modules" xmlns="http://www.w3.org/2000/svg"><path fill-rule="evenodd" clip-rule="evenodd" d="M2.537 13.444a.536.536 0 0 1 .733-.193L12 18.345l8.73-5.093a.536.536 0 0 1 .54.926l-9 5.25a.536.536 0 0 1-.54 0l-9-5.25a.536.536 0 0 1-.193-.733Z"/><path fill-rule="evenodd" clip-rule="evenodd" d="M11.73 4.53a.536.536 0 0 1 .54 0l9 5.25a.536.536 0 0 1 0 .926l-9 5.25a.536.536 0 0 1-.54 0l-9-5.25a.536.536 0 0 1 0-.926l9-5.25Zm-7.667 5.713L12 14.873l7.937-4.63L12 5.613l-7.937 4.63Z"/></symbol><symbol viewBox="0 0 24 24" id="more-menu" xmlns="http://www.w3.org/2000/svg"><path fill-rule="evenodd" clip-rule="evenodd" d="M3 12a.75.75 0 0 1 .75-.75h16.5a.75.75 0 0 1 0 1.5H3.75A.75.75 0 0 1 3 12ZM3 6a.75.75 0 0 1 .75-.75h16.5a.75.75 0 0 1 0 1.5H3.75A.75.75 0 0 1 3 6ZM3 18a.75.75 0 0 1 .75-.75h16.5a.75.75 0 0 1 0 1.5H3.75A.75.75 0 0 1 3 18Z"/></symbol><symbol viewBox="0 0 24 24" id="move" xmlns="http://www.w3.org/2000/svg"><path fill-rule="evenodd" clip-rule="evenodd" d="M9.015 17.697c.261-.26.684-.26.945 0l1.89 1.89 1.89-1.89a.668.668 0 0 1 .945.945l-2.363 2.362a.668.668 0 0 1-.944 0l-2.363-2.362a.668.668 0 0 1 0-.945Z"/><path fill-rule="evenodd" clip-rule="evenodd" d="M11.85 13.854c.369 0 .668.299.668.667v6.011a.668.668 0 0 1-1.336 0v-6.01c0-.37.3-.668.668-.668ZM11.378 2.696c.26-.261.683-.261.944 0l2.363 2.362a.668.668 0 0 1-.945.945l-1.89-1.89-1.89 1.89a.668.668 0 0 1-.945-.945l2.363-2.362Z"/><path fill-rule="evenodd" clip-rule="evenodd" d="M11.85 2.5c.369 0 .668.299.668.668v6.01a.668.668 0 0 1-1.336 0v-6.01c0-.369.3-.668.668-.668ZM6.003 9.015c.26.261.26.684 0 .945l-1.89 1.89 1.89 1.89a.668.668 0 0 1-.945.945l-2.362-2.363a.668.668 0 0 1 0-.944l2.362-2.363c.261-.26.684-.26.945 0Z"/><path fill-rule="evenodd" clip-rule="evenodd" d="M2.5 11.85c0-.369.299-.668.668-.668h6.01a.668.668 0 0 1 0 1.336h-6.01a.668.668 0 0 1-.668-.668ZM17.697 9.015c.261-.26.684-.26.945 0l2.362 2.363c.261.26.261.683 0 .944l-2.362 2.363a.668.668 0 0 1-.945-.945l1.89-1.89-1.89-1.89a.668.668 0 0 1 0-.945Z"/><path fill-rule="evenodd" clip-rule="evenodd" d="M13.854 11.85c0-.369.299-.668.667-.668h6.011a.668.668 0 0 1 0 1.336h-6.01a.668.668 0 0 1-.668-.668Z"/><path fill-rule="evenodd" clip-rule="evenodd" d="M11.658 2.633a.568.568 0 0 0-.376.535v1.37l.497-.496a.1.1 0 0 1 .142 0l.497.497V3.168a.566.566 0 0 0-.161-.396l-.006-.006a.574.574 0 0 0-.401-.166.57.57 0 0 0-.192.033Zm.959.499v1.606l1.194 1.194a.568.568 0 0 0 .803-.803l-1.997-1.997Zm-.2 1.69-.567-.568-.568.568v4.357a.568.568 0 0 0 1.136 0V4.822Zm-1.335.2v4.157a.768.768 0 0 0 1.536 0V5.022l1.051 1.051a.768.768 0 1 0 1.086-1.086L12.4 2.631a.77.77 0 0 0-.815-.183.765.765 0 0 0-.277.177L8.944 4.987a.768.768 0 0 0 1.086 1.086l1.052-1.051Zm0-.283V3.132L9.087 5.129a.568.568 0 1 0 .803.803l1.193-1.193Zm-5.15 4.347a.568.568 0 0 0-.803 0l-1.997 1.997a.72.72 0 0 1 .036 0h1.57l1.194-1.194a.568.568 0 0 0 0-.803Zm-.91 1.996 1.051-1.052a.768.768 0 1 0-1.086-1.085l-2.362 2.362a.764.764 0 0 0 .001 1.087l2.361 2.361a.768.768 0 1 0 1.086-1.085l-1.051-1.052h4.156a.768.768 0 0 0 0-1.536H5.022Zm-.483.2H3.168a.568.568 0 0 0-.402.97m.366.365 1.997 1.997a.568.568 0 1 0 .803-.803l-1.193-1.193H3.132Zm1.407-.2H3.168a.566.566 0 0 1-.4-.164m1.77.165-.496-.497a.1.1 0 0 1 0-.142l.497-.497m.283 1.136h4.356a.568.568 0 0 0 0-1.136H4.822l-.568.568.568.568ZM18.57 9.086a.568.568 0 0 0-.803.803l1.193 1.193h1.571l.036.001-1.997-1.997Zm2.498 2.215-2.357-2.356a.768.768 0 1 0-1.085 1.085l1.051 1.052h-4.157a.768.768 0 1 0 0 1.536h4.157l-1.052 1.052a.768.768 0 1 0 1.086 1.085L21.07 12.4a.767.767 0 0 0 0-1.098Zm-.038.278a.568.568 0 0 1-.098.673l-.005.005a.566.566 0 0 1-.396.16h-1.37l.496-.496a.1.1 0 0 0 0-.142l-.497-.497h1.371c.154 0 .294.062.397.162l.005.004a.558.558 0 0 1 .097.131Zm-2.153-.297h-4.357a.568.568 0 1 0 0 1.136h4.357l.568-.568-.568-.568Zm.083 1.336h1.607l-1.997 1.996a.568.568 0 1 1-.803-.803l1.193-1.193Zm-7.111 1.336a.568.568 0 0 0-.568.567v4.357l.568.568.568-.568v-4.357a.568.568 0 0 0-.568-.567Zm.768 4.724v-4.157a.768.768 0 1 0-1.536 0v4.157l-1.052-1.051a.768.768 0 1 0-1.086 1.086l2.363 2.362a.765.765 0 0 0 1.092-.006l2.356-2.356a.768.768 0 1 0-1.086-1.086l-1.051 1.051Zm-.2.483-.497.497a.1.1 0 0 1-.142 0l-.497-.497v1.371a.568.568 0 0 0 .97.402l.005-.006a.566.566 0 0 0 .16-.396v-1.37Zm.199 1.407v-1.606l1.194-1.194a.568.568 0 1 1 .803.803l-1.997 1.997Zm-1.534 0-.001-.036v-1.57l-1.193-1.194a.568.568 0 1 0-.803.803l1.997 1.997Z"/></symbol><symbol viewBox="0 0 24 24" id="move-blend" xmlns="http://www.w3.org/2000/svg"><path fill-rule="evenodd" d="M6.568 7.996c-2.085 0-3.37 1.772-3.424 3.907-.055 2.162 1.47 4.1 3.424 4.1.51 0 1.045-.215 1.595-.616.547-.4 1.06-.95 1.507-1.527a14.294 14.294 0 0 0 1.253-1.94l-.182-.292c-.474-.77-.964-1.564-1.567-2.241-.76-.855-1.589-1.39-2.606-1.39Zm5.242 5.39c-.254.415-.575.902-.954 1.392-.495.64-1.106 1.307-1.808 1.82-.701.512-1.542.906-2.48.906-3.047 0-4.993-2.908-4.924-5.639.067-2.618 1.73-5.369 4.924-5.369 1.623 0 2.826.881 3.727 1.894.573.645 1.07 1.398 1.494 2.079.278-.409.637-.898 1.056-1.39.518-.608 1.147-1.24 1.851-1.725.7-.483 1.528-.858 2.43-.858 3.073 0 5.158 2.587 5.23 5.369.074 2.876-2.17 5.639-5.23 5.639-1.773 0-3.012-.943-3.915-2.029-.448-.54-.828-1.13-1.16-1.682a41.43 41.43 0 0 1-.242-.406Zm.852-1.509c.108.18.218.369.328.557.116.199.232.397.346.586.319.53.653 1.044 1.029 1.496.746.898 1.602 1.488 2.76 1.488 2.095 0 3.787-1.94 3.731-4.1-.054-2.12-1.613-3.908-3.73-3.908-.485 0-1.017.205-1.578.592-.558.385-1.09.912-1.561 1.464a15.16 15.16 0 0 0-1.325 1.825Z"/></symbol><symbol viewBox="0 0 24 24" id="move-frame" xmlns="http://www.w3.org/2000/svg"><path fill-rule="evenodd" d="M11.875 4.375a7.5 7.5 0 1 0 0 15 7.5 7.5 0 0 0 0-15Zm-9 7.5a9 9 0 1 1 18 0 9 9 0 0 1-18 0Z"/><path fill-rule="evenodd" d="M11.875 1a.75.75 0 0 1 .75.75V5.5a.75.75 0 0 1-1.5 0V1.75a.75.75 0 0 1 .75-.75ZM1 11.875a.75.75 0 0 1 .75-.75H5.5a.75.75 0 0 1 0 1.5H1.75a.75.75 0 0 1-.75-.75ZM11.875 17.5a.75.75 0 0 1 .75.75V22a.75.75 0 0 1-1.5 0v-3.75a.75.75 0 0 1 .75-.75Zm5.625-5.625a.75.75 0 0 1 .75-.75H22a.75.75 0 0 1 0 1.5h-3.75a.75.75 0 0 1-.75-.75Zm-5.625-2.25a2.25 2.25 0 1 0 0 4.5 2.25 2.25 0 0 0 0-4.5Zm-3.75 2.25a3.75 3.75 0 1 1 7.5 0 3.75 3.75 0 0 1-7.5 0Z"/></symbol><symbol viewBox="0 0 24 24" id="move-speed" xmlns="http://www.w3.org/2000/svg"><path fill-rule="evenodd" d="M15.42 6.675A9 9 0 0 0 11.965 6C7.007 6.017 3 10.116 3 15.103v2.147h18V15a9 9 0 0 0-5.58-8.325ZM11.96 4.5A10.5 10.5 0 0 1 22.5 15v2.25a1.5 1.5 0 0 1-1.5 1.5H3a1.5 1.5 0 0 1-1.5-1.5v-2.147C1.5 9.31 6.155 4.52 11.96 4.5Z"/><path fill-rule="evenodd" d="M12 4.5a.75.75 0 0 1 .75.75v3a.75.75 0 0 1-1.5 0v-3A.75.75 0 0 1 12 4.5ZM1.854 12.284a.75.75 0 0 1 .918-.53l2.906.778a.75.75 0 1 1-.388 1.449l-2.906-.778a.75.75 0 0 1-.53-.919Zm20.292 0a.75.75 0 0 1-.53.919l-2.906.778a.75.75 0 0 1-.388-1.45l2.906-.777a.75.75 0 0 1 .918.53Zm-5.583-3.232a.75.75 0 0 1 .138 1.052l-6.412 8.353a.75.75 0 1 1-1.19-.914L15.51 9.19a.75.75 0 0 1 1.052-.138Z"/></symbol><symbol viewBox="0 0 24 24" id="move-transform" xmlns="http://www.w3.org/2000/svg"><path fill-rule="evenodd" d="M13.963 5.002h-3.926L3.664 18.999h16.672L13.963 5.002Zm3.02 12.497H6.742l5.156-11.287 5.083 11.287Z"/></symbol><symbol viewBox="0 0 56 57" id="one-position-frame" xmlns="http://www.w3.org/2000/svg"><path d="m20 20 2.07-2.5L24 20"/><path fill-rule="evenodd" clip-rule="evenodd" d="M21.4 35.5a.6.6 0 0 1 .6-.6h14.5a.6.6 0 1 1 0 1.2H22a.6.6 0 0 1-.6-.6Z"/><path fill-rule="evenodd" clip-rule="evenodd" d="M38.1 35.581a.6.6 0 0 1-.233.465l-2.5 1.93a.6.6 0 0 1-.734-.95l1.906-1.472-1.922-1.592a.6.6 0 0 1 .766-.924l2.5 2.07a.6.6 0 0 1 .217.473ZM21.878 36.035a.6.6 0 0 1 .088.844l-6.5 8a.6.6 0 0 1-.932-.757l6.5-8a.6.6 0 0 1 .844-.087Z"/><path fill-rule="evenodd" clip-rule="evenodd" d="M14.218 45.912a.6.6 0 0 1-.6-.6V42.5a.6.6 0 1 1 1.2 0v2.212h2.002a.6.6 0 1 1 0 1.2h-2.602ZM22.07 17.9a.6.6 0 0 1 .6.6V36a.6.6 0 0 1-1.2 0V18.5a.6.6 0 0 1 .6-.6Z"/><path fill-rule="evenodd" clip-rule="evenodd" d="M22.08 16.9a.6.6 0 0 1 .465.234l1.93 2.5a.6.6 0 1 1-.95.733l-1.471-1.906-1.592 1.922a.6.6 0 0 1-.924-.765l2.07-2.5a.6.6 0 0 1 .473-.217Z"/><g class="cndashed-arrow" style="fill:var(--color-icon-secondary)" fill-rule="evenodd" clip-rule="evenodd"><path class="cnlight-blue" d="M22.08 6.9a.6.6 0 0 1 .465.234l1.93 2.5a.6.6 0 1 1-.95.733l-1.471-1.906-1.592 1.922a.6.6 0 0 1-.924-.765l2.07-2.5a.6.6 0 0 1 .473-.218Z"/><path class="cnlight-blue" d="M21.4 10.5v.417a.6.6 0 0 0 1.2 0V10.5a.6.6 0 1 0-1.2 0Zm0 2.084v.833a.6.6 0 0 0 1.2 0v-.833a.6.6 0 0 0-1.2 0Zm0 2.5v.416a.6.6 0 0 0 1.2 0v-.416a.6.6 0 0 0-1.2 0ZM49.1 35.581a.6.6 0 0 1-.233.465l-2.5 1.93a.6.6 0 0 1-.734-.95l1.906-1.472-1.922-1.592a.6.6 0 0 1 .766-.924l2.5 2.07a.6.6 0 0 1 .217.473Z"/><path class="cnlight-blue" d="M45 34.9h-.417a.6.6 0 1 0 0 1.2H45a.6.6 0 1 0 0-1.2Zm-2.083 0h-.834a.6.6 0 1 0 0 1.2h.834a.6.6 0 1 0 0-1.2Zm-2.5 0H40a.6.6 0 0 0 0 1.2h.417a.6.6 0 1 0 0-1.2ZM8.299 52.1a.6.6 0 0 1-.6-.6v-3a.6.6 0 1 1 1.2 0v2.4h2.1A.6.6 0 0 1 11 52.1H8.299Z"/><path class="cnlight-blue" d="M9.61 50.455a.6.6 0 0 0 .846-.065l.25-.292a.6.6 0 1 0-.912-.78l-.25.291a.6.6 0 0 0 .065.846Zm1.25-1.458a.6.6 0 0 0 .846-.065l.5-.584a.6.6 0 0 0-.912-.78l-.5.583a.6.6 0 0 0 .066.846Zm1.5-1.75a.6.6 0 0 0 .846-.065l.25-.292a.6.6 0 1 0-.912-.781l-.25.292a.6.6 0 0 0 .066.846Z"/></g><path d="M24.5 35.75a2.25 2.25 0 1 1-4.5 0 2.25 2.25 0 0 1 4.5 0Z" style="fill:var(--color-icon-warning)"/></symbol><symbol viewBox="0 0 24 24" id="open" xmlns="http://www.w3.org/2000/svg"><path fill-rule="evenodd" clip-rule="evenodd" d="M3.642 4.642a1.34 1.34 0 0 1 .948-.392h4.466c.288.001.568.095.8.266l.001.002 2.327 1.74.004.002h5.802a1.34 1.34 0 0 1 1.34 1.34v2.01a.67.67 0 1 1-1.34 0V7.6h-5.807a1.349 1.349 0 0 1-.799-.266l-.001-.002-2.327-1.74a.009.009 0 0 0-.005-.002H4.59v12.06a.67.67 0 0 1-1.34 0V5.59c0-.355.141-.696.392-.948Z"/><path fill-rule="evenodd" clip-rule="evenodd" d="M13.5 8.94h6.91a1.34 1.34 0 0 1 1.273 1.759v.002l-2.388 7.16a.67.67 0 0 1-.635.459H3.92a.67.67 0 0 1-.622-.92l2.511-6.277v-.002a1.332 1.332 0 0 1 1.245-.841h.003l-.005.67v-.67h4.031-.001l.007.67v-.659l.368.55-.358-.566-.002.001 1.662-1.114.015-.01c.216-.136.465-.21.72-.212h.007ZM11.09 10.28v-.001h-.006c.005 0 .01-.002.014-.004l-.008.005Zm2.418-.001a.033.033 0 0 0-.014.003l-1.663 1.115-.015.01c-.215.136-.464.21-.719.212H7.054L4.91 16.98h13.267l2.233-6.7h-6.903Z"/></symbol><symbol viewBox="0 0 24 24" id="operator" xmlns="http://www.w3.org/2000/svg"><path fill-rule="evenodd" d="M12 4a5 5 0 1 0 0 10 5 5 0 0 0 0-10ZM5 9a7 7 0 1 1 14 0A7 7 0 0 1 5 9Z" clip-rule="evenodd"/><path fill-rule="evenodd" d="M12 16a9.5 9.5 0 0 0-8.228 4.75 1 1 0 0 1-1.732-1 11.5 11.5 0 0 1 19.92 0 1 1 0 1 1-1.732 1A9.5 9.5 0 0 0 12 16Z" clip-rule="evenodd"/></symbol><symbol viewBox="0 0 24 24" id="operator-input" xmlns="http://www.w3.org/2000/svg"><path fill-rule="evenodd" clip-rule="evenodd" d="M3.75 4.286a.214.214 0 0 0-.214.214v10.878l2.84-2.295a.536.536 0 0 1 .337-.119h9.037a.214.214 0 0 0 .214-.214V4.5a.214.214 0 0 0-.214-.214h-12Zm-.91-.695c.242-.241.57-.377.91-.377h12A1.286 1.286 0 0 1 17.036 4.5v8.25a1.286 1.286 0 0 1-1.286 1.286H6.902l-3.565 2.88a.536.536 0 0 1-.873-.416v-12c0-.341.136-.668.377-.91Z"/><path fill-rule="evenodd" clip-rule="evenodd" d="M15.964 8.25c0-.296.24-.536.536-.536h3.75A1.286 1.286 0 0 1 21.536 9v12a.536.536 0 0 1-.873.417l-3.565-2.881H8.25a1.285 1.285 0 0 1-1.286-1.286V13.5a.536.536 0 1 1 1.072 0v3.75a.214.214 0 0 0 .214.214h9.038a.53.53 0 0 1 .336.12l2.84 2.294V9a.214.214 0 0 0-.214-.214H16.5a.536.536 0 0 1-.536-.536Z"/></symbol><symbol viewBox="0 0 24 24" id="paste" xmlns="http://www.w3.org/2000/svg"><path fill-rule="evenodd" d="M8.25 14.25A.75.75 0 0 1 9 13.5h6a.75.75 0 0 1 0 1.5H9a.75.75 0 0 1-.75-.75Zm0-3A.75.75 0 0 1 9 10.5h6a.75.75 0 0 1 0 1.5H9a.75.75 0 0 1-.75-.75Z" clip-rule="evenodd"/><path fill-rule="evenodd" d="M4.19 3.44A1.5 1.5 0 0 1 5.25 3H9a.75.75 0 0 1 0 1.5H5.25v15.75h13.5V4.5H15A.75.75 0 0 1 15 3h3.75a1.5 1.5 0 0 1 1.5 1.5v15.75a1.5 1.5 0 0 1-1.5 1.5H5.25a1.5 1.5 0 0 1-1.5-1.5V4.5c0-.398.158-.78.44-1.06Z" clip-rule="evenodd"/><path fill-rule="evenodd" d="M12 3a3 3 0 0 0-3 3h6a3 3 0 0 0-3-3Zm-3.182-.182A4.5 4.5 0 0 1 16.5 6v.75a.75.75 0 0 1-.75.75h-7.5a.75.75 0 0 1-.75-.75V6a4.5 4.5 0 0 1 1.318-3.182Z" clip-rule="evenodd"/></symbol><symbol viewBox="0 0 24 24" id="pause" xmlns="http://www.w3.org/2000/svg"><path d="M2 4a2 2 0 0 1 2-2h4a2 2 0 0 1 2 2v16a2 2 0 0 1-2 2H4a2 2 0 0 1-2-2V4ZM14 4a2 2 0 0 1 2-2h4a2 2 0 0 1 2 2v16a2 2 0 0 1-2 2h-4a2 2 0 0 1-2-2V4Z"/></symbol><symbol viewBox="0 0 24 24" id="payload" xmlns="http://www.w3.org/2000/svg"><path fill-rule="evenodd" clip-rule="evenodd" d="M11.864 2a4.17 4.17 0 0 1 2.657 7.418L14 8.768a3.336 3.336 0 1 0-4.128.043l-.509.66a4.17 4.17 0 0 1 2.502-7.47Z"/><path fill-rule="evenodd" clip-rule="evenodd" d="M11.908 7.003a.834.834 0 1 0 0-1.667.834.834 0 0 0 0 1.667Zm0 .834a1.668 1.668 0 1 0 0-3.335 1.668 1.668 0 0 0 0 3.335ZM6.686 9.505c-.4 0-.743.283-.819.675L3.85 20.604c-.1.514.294.992.818.992h14.664c.529 0 .924-.487.816-1.005l-2.186-10.423a.834.834 0 0 0-.816-.663h-2.945a.417.417 0 1 1 0-.834h2.945c.79 0 1.47.553 1.632 1.325l2.186 10.424a1.668 1.668 0 0 1-1.632 2.01H4.668a1.668 1.668 0 0 1-1.637-1.985l2.017-10.423A1.668 1.668 0 0 1 6.686 8.67h2.929a.417.417 0 1 1 0 .834h-2.93Z"/><path fill-rule="evenodd" clip-rule="evenodd" d="M11.938 18.6a3.064 3.064 0 1 0 0-6.13 3.064 3.064 0 0 0 0 6.13Zm0 .765a3.83 3.83 0 1 0 0-7.66 3.83 3.83 0 0 0 0 7.66Z"/><path fill-rule="evenodd" clip-rule="evenodd" d="M7.214 15.47c0-.21.171-.382.383-.382h8.427a.383.383 0 1 1 0 .766H7.597a.383.383 0 0 1-.383-.383Z"/><path fill-rule="evenodd" clip-rule="evenodd" d="M11.938 10.683c.212 0 .383.171.383.383v8.81a.383.383 0 1 1-.766 0v-8.81c0-.212.171-.383.383-.383Z"/></symbol><symbol viewBox="0 0 24 24" id="pencil" xmlns="http://www.w3.org/2000/svg"><path fill-rule="evenodd" clip-rule="evenodd" d="M5.447 20.536a1.75 1.75 0 0 1-1.73-1.96l.54-4.477a1.75 1.75 0 0 1 .58-1.104l11.161-9.838a1.75 1.75 0 0 1 2.47.156l3.964 4.498a1.75 1.75 0 0 1-.156 2.47l-11.161 9.838a1.75 1.75 0 0 1-1.165.437l-4.503-.02Zm-.24-1.78a.25.25 0 0 0 .247.28l4.503.02a.25.25 0 0 0 .166-.062l11.161-9.839a.25.25 0 0 0 .023-.353l-3.964-4.497a.25.25 0 0 0-.353-.022L5.83 14.12a.25.25 0 0 0-.084.157l-.54 4.478Z"/><path fill-rule="evenodd" clip-rule="evenodd" d="M13.351 5.82a.75.75 0 0 1 1.059.068l4.959 5.626a.75.75 0 1 1-1.125.992l-4.96-5.627a.75.75 0 0 1 .067-1.058Z"/></symbol><symbol viewBox="0 0 24 24" id="play" xmlns="http://www.w3.org/2000/svg"><path d="m21.778 10.716-13.5-8.241a1.453 1.453 0 0 0-1.51-.028A1.481 1.481 0 0 0 6 3.75v16.5a1.481 1.481 0 0 0 .769 1.303 1.453 1.453 0 0 0 1.51-.028l13.5-8.24a1.499 1.499 0 0 0 0-2.57Z"/></symbol><symbol viewBox="0 0 24 24" id="plus" xmlns="http://www.w3.org/2000/svg"><path fill-rule="evenodd" d="M12 4a1 1 0 0 1 1 1v14a1 1 0 1 1-2 0V5a1 1 0 0 1 1-1Z" clip-rule="evenodd"/><path fill-rule="evenodd" d="M4 12a1 1 0 0 1 1-1h14a1 1 0 1 1 0 2H5a1 1 0 0 1-1-1Z" clip-rule="evenodd"/></symbol><symbol viewBox="0 0 24 24" id="plus-circle" xmlns="http://www.w3.org/2000/svg"><defs><style>.cwcls-1{fill-rule:evenodd}</style></defs><g id="cwWarning"><path class="cwcls-1" d="M12 0a12 12 0 1 0 12 12A12 12 0 0 0 12 0Zm0 21.6a9.6 9.6 0 1 1 9.6-9.6 9.6 9.6 0 0 1-9.6 9.6Z"/><path class="cwcls-1" d="M16.5 10.8h-3.3V7.5a1.2 1.2 0 1 0-2.4 0v3.3H7.5a1.2 1.2 0 0 0 0 2.4h3.3v3.3a1.2 1.2 0 0 0 2.4 0v-3.3h3.3a1.2 1.2 0 0 0 0-2.4Z"/></g></symbol><symbol viewBox="0 0 24 24" id="power" xmlns="http://www.w3.org/2000/svg"><path fill-rule="evenodd" clip-rule="evenodd" d="M12 3a.75.75 0 0 1 .75.75v7.125a.75.75 0 0 1-1.5 0V3.75A.75.75 0 0 1 12 3Z"/><path fill-rule="evenodd" clip-rule="evenodd" d="M8.129 3.922a.75.75 0 0 1-.22 1.038 7.5 7.5 0 1 0 8.182 0 .75.75 0 0 1 .818-1.257 9 9 0 1 1-9.818 0 .75.75 0 0 1 1.038.22Z"/></symbol><symbol viewBox="0 0 24 24" id="program" xmlns="http://www.w3.org/2000/svg"><path fill-rule="evenodd" clip-rule="evenodd" d="M2.25 5.25a1.5 1.5 0 0 1 1.5-1.5h16.5a1.5 1.5 0 0 1 1.5 1.5v13.5a1.5 1.5 0 0 1-1.5 1.5H3.75a1.5 1.5 0 0 1-1.5-1.5V5.25Zm18 0H3.75v13.5h16.5V5.25Z"/><path d="M6.375 9a1.125 1.125 0 1 0 0-2.25 1.125 1.125 0 0 0 0 2.25ZM10.125 9a1.125 1.125 0 1 0 0-2.25 1.125 1.125 0 0 0 0 2.25Z"/></symbol><symbol viewBox="0 0 24 24" id="program-nav"><path d="M8 5h15s1 0 1 1-1 1-1 1H8S7 7 7 6s1-1 1-1zM4 5H1S0 5 0 6s1 1 1 1h3s1 0 1-1-1-1-1-1zm4 6h15s1 0 1 1-1 1-1 1H8s-1 0-1-1 1-1 1-1zm-4 0H1s-1 0-1 1 1 1 1 1h3s1 0 1-1-1-1-1-1zm4 6h15s1 0 1 1-1 1-1 1H8s-1 0-1-1 1-1 1-1zm-4 0H1s-1 0-1 1 1 1 1 1h3s1 0 1-1-1-1-1-1z"/></symbol><symbol viewBox="0 0 24 24" id="record" xmlns="http://www.w3.org/2000/svg"><path fill-rule="evenodd" d="M12 4a8 8 0 1 0 0 16 8 8 0 0 0 0-16ZM2 12C2 6.477 6.477 2 12 2s10 4.477 10 10-4.477 10-10 10S2 17.523 2 12Z" clip-rule="evenodd"/><path d="M17 12a5 5 0 1 1-10 0 5 5 0 0 1 10 0Z"/></symbol><symbol viewBox="0 0 24 24" id="redo" xmlns="http://www.w3.org/2000/svg"><path fill-rule="evenodd" d="M15.793 3.043a1 1 0 0 0 0 1.414l3.793 3.793-3.793 3.793a1 1 0 0 0 1.414 1.414l4.5-4.5a1 1 0 0 0 0-1.414l-4.5-4.5a1 1 0 0 0-1.414 0Z" clip-rule="evenodd"/><path fill-rule="evenodd" d="M22 8.25a1 1 0 0 0-1-1H8.25a6.25 6.25 0 0 0 0 12.5h8.25a1 1 0 1 0 0-2H8.25a4.25 4.25 0 0 1 0-8.5H21a1 1 0 0 0 1-1Z" clip-rule="evenodd"/></symbol><symbol viewBox="0 0 24 24" id="reference" xmlns="http://www.w3.org/2000/svg"><path fill-rule="evenodd" clip-rule="evenodd" d="m13.636 6.11-1.64 1.64a.667.667 0 1 1-.943-.943l1.651-1.652a4.346 4.346 0 0 1 6.14 6.141l-2.359 2.351v.001a4.33 4.33 0 0 1-6.134 0 .667.667 0 1 1 .946-.943 2.995 2.995 0 0 0 4.242 0l.002-.002 2.349-2.34a3.011 3.011 0 0 0-4.254-4.253Zm-3.054 4.304a2.995 2.995 0 0 0-2.121.88l-.002.003-2.349 2.34a3.011 3.011 0 0 0 4.253 4.253l1.64-1.64a.667.667 0 1 1 .944.943l-1.651 1.652a4.346 4.346 0 0 1-6.14-6.141l2.359-2.351v-.001a4.33 4.33 0 0 1 6.134 0 .667.667 0 1 1-.946.943 2.995 2.995 0 0 0-2.121-.881Z"/></symbol><symbol viewBox="0 0 24 24" id="relative-move" xmlns="http://www.w3.org/2000/svg"><path fill-rule="evenodd" clip-rule="evenodd" d="M4.339 14.507a1.947 1.947 0 1 0 0 3.894 1.947 1.947 0 0 0 0-3.894Zm-2.946 1.947a2.946 2.946 0 1 1 5.892 0 2.946 2.946 0 0 1-5.892 0ZM17.64 4.61a.476.476 0 0 1 .602-.372l3.957 1.082a.563.563 0 0 1 .399.645l-.805 4.023a.476.476 0 0 1-.601.371.563.563 0 0 1-.398-.645l.703-3.515-3.458-.945a.563.563 0 0 1-.398-.644Z"/><path fill-rule="evenodd" clip-rule="evenodd" d="M6.197 15.65c-.156-.252-.091-.574.144-.719l15.475-9.559c.235-.145.552-.058.707.193.155.252.091.574-.144.719L6.904 15.843c-.235.145-.552.058-.707-.194Z"/></symbol><symbol viewBox="0 0 24 24" id="right" xmlns="http://www.w3.org/2000/svg"><defs><style>.c,.e{fill:none}.c{stroke:#000;stroke-miterlimit:10;stroke-width:.2px}.d{stroke:none}</style></defs><path d="M9 16.59 13.58 12 9 7.41 10.41 6l6 6-6 6Z"/></symbol><symbol viewBox="0 0 24 24" id="safety" xmlns="http://www.w3.org/2000/svg"><path d="M19.5 3h-15A1.5 1.5 0 0 0 3 4.5v5.503c0 8.381 7.106 11.166 8.531 11.634.305.1.633.1.938 0C13.894 21.17 21 18.384 21 10.003V4.5A1.5 1.5 0 0 0 19.5 3ZM12 20.212c-1.19-.393-6.778-2.587-7.434-8.962H12V4.5h7.5v5.503c.002.417-.02.833-.066 1.247H12v8.962Z"/></symbol><symbol viewBox="0 0 24 24" id="save" xmlns="http://www.w3.org/2000/svg"><path fill-rule="evenodd" clip-rule="evenodd" d="m15.69 4.75 4.06 4.06v10.94H17.5V14.5A1.5 1.5 0 0 0 16 13H8.5A1.5 1.5 0 0 0 7 14.5v5.25H4.75v-15h10.94Zm-7.19 15H16V14.5H8.5v5.25Zm7.19-16.5a1.49 1.49 0 0 1 1.055.434l.001.001 4.07 4.07a1.489 1.489 0 0 1 .434 1.056v.001l-.75-.003h.75V19.75a1.5 1.5 0 0 1-1.5 1.5h-15a1.5 1.5 0 0 1-1.5-1.5v-15a1.5 1.5 0 0 1 1.5-1.5h10.94Zm0 0h-.002l.003.75v-.75h-.001ZM8.5 7a.75.75 0 0 1 .75-.75h5.25a.75.75 0 0 1 0 1.5H9.25A.75.75 0 0 1 8.5 7Z"/></symbol><symbol viewBox="0 0 24 24" id="scara-mode" xmlns="http://www.w3.org/2000/svg"><path class="dicls-1" d="m24 23.32-.49-1.73-.51-1.72c-.09-.31-.49-.33-.72 0 0 0-.38.32-.77.68l-6.3-5.08a3.33 3.33 0 0 0 .09-.78 3.52 3.52 0 0 0-2.47-3.35V6.53c3.8.17 5.75 1.11 5.84 1.48 0 .11-.41.51-1.7.89v-.4a.28.28 0 0 0-.41-.27l-1.05.67-1 .66a.34.34 0 0 0 0 .54l1 .66 1.05.67a.28.28 0 0 0 .41-.27v-.79C19 9.84 20.1 9 20.1 8c0-1.84-3.58-2.76-7.26-2.91V3.91l1-.17c.37 0 .6-.32.42-.58l-1-1.47-1-1.46a.53.53 0 0 0-.82 0l-1 1.46-1 1.47c-.18.26.05.58.42.58l1 .17v1.2C7 5.25 3.4 6.17 3.4 8c0 .79.63 1.44 1.86 2a.72.72 0 0 0 .93-.39.71.71 0 0 0-.39-.93c-.75-.3-1-.57-1-.62.09-.39 2.06-1.34 5.9-1.5v4.74a3.53 3.53 0 0 0-2.47 3.35 3.74 3.74 0 0 0 .18 1.06l-5.95 4.8c-.39-.36-.77-.68-.77-.68-.23-.29-.63-.27-.72 0l-.46 1.76L0 23.32a.53.53 0 0 0 .54.68l1.79-.11 1.78-.1c.32 0 .43-.41.2-.69l-.5-.9 5.85-4.71a3.48 3.48 0 0 0 2.12.73 3.53 3.53 0 0 0 2.34-.9l6.07 4.88-.5.9c-.23.28-.12.67.2.69l1.78.1 1.79.11a.53.53 0 0 0 .54-.68Zm-12.2-6.55a2.12 2.12 0 1 1 2.12-2.12 2.12 2.12 0 0 1-2.14 2.12Z"/></symbol><symbol viewBox="0 0 24 24" id="script" xmlns="http://www.w3.org/2000/svg"><path fill-rule="evenodd" clip-rule="evenodd" d="M7.227 3.632c.523-.28 1.18-.418 1.987-.418a.536.536 0 1 1 0 1.072c-.692 0-1.16.12-1.482.29a1.492 1.492 0 0 0-.66.697c-.31.64-.322 1.53-.322 2.602v.072c0 .976 0 2.112-.429 2.998-.201.415-.497.78-.92 1.055.423.275.719.64.92 1.055.43.886.43 2.022.429 2.998v.072c0 1.071.011 1.963.321 2.602.143.296.35.53.661.696.322.172.79.291 1.482.291a.536.536 0 1 1 0 1.072c-.808 0-1.464-.139-1.987-.418a2.565 2.565 0 0 1-1.12-1.173c-.43-.886-.429-2.022-.429-2.998v-.072c0-1.071-.01-1.963-.32-2.602a1.495 1.495 0 0 0-.662-.696c-.321-.172-.79-.291-1.482-.291a.536.536 0 1 1 0-1.072c.692 0 1.16-.12 1.482-.29.312-.168.518-.401.661-.697.31-.64.321-1.53.321-2.602v-.072c0-.976 0-2.112.43-2.998.23-.478.588-.889 1.12-1.173Zm7.023.118c0-.296.24-.536.536-.536.808 0 1.464.139 1.987.418.531.284.888.695 1.12 1.173.429.886.429 2.022.428 2.998v.072c0 1.071.011 1.963.322 2.602.143.296.348.53.66.696.322.172.79.291 1.483.291a.536.536 0 1 1 0 1.072c-.692 0-1.16.12-1.482.29a1.494 1.494 0 0 0-.661.697c-.31.64-.322 1.53-.322 2.602v.072c0 .976 0 2.112-.428 2.998a2.565 2.565 0 0 1-1.12 1.173c-.523.28-1.18.418-1.987.418a.536.536 0 1 1 0-1.072c.692 0 1.16-.12 1.481-.29.313-.168.518-.401.662-.697.31-.64.32-1.53.32-2.602v-.072c0-.976 0-2.112.43-2.998.201-.415.497-.78.92-1.055a2.568 2.568 0 0 1-.92-1.055c-.43-.886-.43-2.022-.43-2.998v-.072c0-1.071-.01-1.963-.32-2.602a1.495 1.495 0 0 0-.662-.696c-.32-.172-.79-.291-1.481-.291a.536.536 0 0 1-.536-.536Z"/></symbol><symbol viewBox="0 0 24 24" id="set" xmlns="http://www.w3.org/2000/svg"><g clip-path="url(#dka)" fill-rule="evenodd" clip-rule="evenodd"><path d="M9.887 3c.364 0 .66.262.66.584v16.832c0 .24-.166.455-.418.543a.722.722 0 0 1-.725-.145l-4.226-4.007a.538.538 0 0 1 .032-.826.722.722 0 0 1 .933.028l3.083 2.924V3.584c0-.322.296-.584.66-.584Zm4.226 18c-.364 0-.66-.262-.66-.584V3.584c0-.24.166-.455.418-.543a.722.722 0 0 1 .725.145l4.226 4.007a.538.538 0 0 1-.032.826.722.722 0 0 1-.933-.028l-3.083-2.924v15.349c0 .322-.296.584-.66.584Z"/></g><defs><clipPath id="dka"><path d="M0 0h24v24H0z"/></clipPath></defs></symbol><symbol viewBox="0 0 24 24" id="settings" xmlns="http://www.w3.org/2000/svg"><path fill-rule="evenodd" clip-rule="evenodd" d="M12 8.39a3.213 3.213 0 1 0 0 6.425 3.213 3.213 0 0 0 0-6.425Zm-4.498 3.212a4.498 4.498 0 1 1 8.996 0 4.498 4.498 0 0 1-8.996 0Z"/><path fill-rule="evenodd" clip-rule="evenodd" d="M9.248 3.031a.643.643 0 0 1 .528.06l1.879 1.128c.23-.01.46-.01.69 0l1.871-1.12a.642.642 0 0 1 .524-.061 8.883 8.883 0 0 1 3.307 1.905.643.643 0 0 1 .21.485l-.037 2.184c.127.195.243.396.349.603l1.904 1.059c.16.089.275.242.315.421a8.834 8.834 0 0 1 .008 3.812.642.642 0 0 1-.316.425l-1.912 1.058a6.56 6.56 0 0 1-.348.603l.037 2.183a.643.643 0 0 1-.21.486 8.996 8.996 0 0 1-3.295 1.912.642.642 0 0 1-.528-.06l-1.879-1.128c-.23.01-.46.01-.69 0l-1.871 1.12a.643.643 0 0 1-.524.06 8.883 8.883 0 0 1-3.307-1.904.642.642 0 0 1-.21-.486l.037-2.178a7.078 7.078 0 0 1-.348-.608L3.527 13.93a.643.643 0 0 1-.315-.422 8.835 8.835 0 0 1-.008-3.81.643.643 0 0 1 .316-.426l1.911-1.058c.106-.207.222-.409.349-.603l-.037-2.184a.643.643 0 0 1 .21-.485A8.996 8.996 0 0 1 9.248 3.03ZM7.033 5.704l.035 2.088a.643.643 0 0 1-.115.38 5.27 5.27 0 0 0-.451.78.643.643 0 0 1-.27.289l-1.829 1.012a7.55 7.55 0 0 0 .007 2.698l1.822 1.013a.642.642 0 0 1 .269.288c.13.276.283.542.455.795.075.11.114.24.112.373l-.035 2.08a7.598 7.598 0 0 0 2.345 1.35l1.786-1.068a.642.642 0 0 1 .376-.09c.306.022.614.022.92 0a.641.641 0 0 1 .377.09l1.791 1.075a7.71 7.71 0 0 0 2.339-1.357l-.035-2.088a.643.643 0 0 1 .116-.379c.172-.246.323-.507.45-.78a.642.642 0 0 1 .27-.29l1.829-1.011a7.549 7.549 0 0 0-.007-2.699L17.768 9.24a.643.643 0 0 1-.27-.289 5.275 5.275 0 0 0-.45-.78.642.642 0 0 1-.116-.379l.035-2.088a7.598 7.598 0 0 0-2.345-1.35l-1.786 1.069a.643.643 0 0 1-.376.09 6.45 6.45 0 0 0-.92 0 .642.642 0 0 1-.377-.09L9.372 4.346a7.71 7.71 0 0 0-2.339 1.357Z"/></symbol><symbol viewBox="0 0 24 24" id="smart-skills" xmlns="http://www.w3.org/2000/svg"><path fill-rule="evenodd" clip-rule="evenodd" d="M7.5 21.75a.75.75 0 0 1 .75-.75h7.5a.75.75 0 0 1 0 1.5h-7.5a.75.75 0 0 1-.75-.75ZM15.818 4.182A6.75 6.75 0 0 0 11.84 3c-3.658.084-6.607 3.13-6.59 6.793v.001a6.703 6.703 0 0 0 2.589 5.27l-.46.592.463-.589A3.037 3.037 0 0 1 9 17.432V18h6v-.564a3.02 3.02 0 0 1 1.17-2.38 6.75 6.75 0 0 0-.352-10.874ZM6.916 16.247A8.204 8.204 0 0 1 3.75 9.799l.75-.002-.75.003c-.02-4.475 3.575-8.196 8.054-8.3a8.252 8.252 0 0 1 8.124 10.53 8.25 8.25 0 0 1-2.834 4.207l-.004.003a1.518 1.518 0 0 0-.59 1.199V18a1.5 1.5 0 0 1-1.5 1.5H9A1.5 1.5 0 0 1 7.5 18v-.56a1.538 1.538 0 0 0-.584-1.193Z"/><path fill-rule="evenodd" clip-rule="evenodd" d="M12.02 5.2a.75.75 0 0 1 .865-.614 5.24 5.24 0 0 1 4.289 4.277.75.75 0 1 1-1.479.255 3.741 3.741 0 0 0-3.061-3.054.75.75 0 0 1-.614-.864Z"/></symbol><symbol viewBox="0 0 24 24" id="status-item" xmlns="http://www.w3.org/2000/svg"><path d="M20.628 4.264h-8.04V2.566a.555.555 0 0 0-.172-.4A.6.6 0 0 0 12 2a.6.6 0 0 0-.416.166.555.555 0 0 0-.172.4v1.698h-8.04a1.4 1.4 0 0 0-.97.387A1.296 1.296 0 0 0 2 5.585v11.32c0 .35.145.686.402.934a1.4 1.4 0 0 0 .97.387H7.64L5.266 21.08a.56.56 0 0 0-.126.416c.018.15.096.286.218.38a.605.605 0 0 0 .827-.089l2.96-3.561h5.71l2.96 3.561a.584.584 0 0 0 .394.21.611.611 0 0 0 .433-.121.573.573 0 0 0 .218-.38.545.545 0 0 0-.126-.416l-2.373-2.854h4.267a1.4 1.4 0 0 0 .97-.387c.257-.247.402-.583.402-.934V5.585c0-.35-.145-.686-.402-.934a1.4 1.4 0 0 0-.97-.387Zm.195 12.641c0 .05-.02.098-.057.134a.2.2 0 0 1-.138.055H3.373a.2.2 0 0 1-.14-.055.185.185 0 0 1-.057-.134V5.585c0-.05.021-.098.058-.134a.2.2 0 0 1 .139-.055h17.255a.2.2 0 0 1 .138.055.185.185 0 0 1 .058.134v11.32ZM8.405 11.622v2.264c0 .15-.062.295-.172.4a.6.6 0 0 1-.416.167.6.6 0 0 1-.416-.166.556.556 0 0 1-.172-.4v-2.265c0-.15.062-.294.172-.4a.6.6 0 0 1 .416-.166.6.6 0 0 1 .416.166c.11.106.172.25.172.4Zm4.183-1.509v3.774c0 .15-.062.294-.172.4a.6.6 0 0 1-.416.165.6.6 0 0 1-.416-.165.555.555 0 0 1-.172-.4v-3.774c0-.15.062-.294.172-.4A.6.6 0 0 1 12 9.547a.6.6 0 0 1 .416.166c.11.106.172.25.172.4Zm4.183-1.51v5.284c0 .15-.062.294-.172.4a.6.6 0 0 1-.832 0 .555.555 0 0 1-.172-.4V8.604c0-.15.062-.294.172-.4a.6.6 0 0 1 .832 0c.11.106.172.25.172.4Z"/></symbol><symbol viewBox="0 0 24 24" xml:space="preserve" id="step" xmlns="http://www.w3.org/2000/svg"><path d="M20 11.9V4.1c-.1-.5-.5-1-1-1-.7-.1-1.3.4-1.4 1v6.1L4.3 3.1c-.4-.2-1-.1-1.2.4-.1.1-.1.3-.1.4v16.2c0 .5.4.9.9.9.2 0 .3 0 .4-.1l13.3-7.1v6.1c0 .6.6 1.1 1.2 1.1s1.2-.4 1.2-1.1v-8z"/></symbol><symbol viewBox="0 0 24 24" xml:space="preserve" id="stop" xmlns="http://www.w3.org/2000/svg"><path d="M20.5 21h-17c-.3 0-.5-.2-.5-.5v-17c0-.3.2-.5.5-.5h16.9c.4 0 .6.2.6.5v16.9c0 .4-.2.6-.5.6"/></symbol><symbol viewBox="0 0 24 24" id="suppress" xmlns="http://www.w3.org/2000/svg"><path fill-rule="evenodd" d="M4.348 8.618C5.928 7.042 8.406 5.45 11.94 5.45s6.013 1.592 7.592 3.168c.788.786 1.356 1.57 1.728 2.16a10.561 10.561 0 0 1 .523.928l.028.06.008.017.002.005.001.002c0 .001 0 .002-.605.27.606.268.606.269.606.27l-.002.002-.002.005-.008.018a6.81 6.81 0 0 1-.134.268c-.092.176-.23.424-.417.719-.372.59-.94 1.374-1.728 2.16-1.58 1.576-4.058 3.168-7.592 3.168s-6.013-1.592-7.592-3.168a12.514 12.514 0 0 1-1.728-2.16 10.524 10.524 0 0 1-.523-.928 4.414 4.414 0 0 1-.028-.06l-.008-.017-.002-.005-.001-.002c0-.001 0-.002.605-.27a64.435 64.435 0 0 1-.606-.27l.002-.002.002-.005.008-.018a4.414 4.414 0 0 1 .133-.267c.093-.177.231-.425.418-.72.372-.59.94-1.374 1.728-2.16ZM2.663 12.06l-.606-.269a.66.66 0 0 0 0 .537l.606-.268Zm.74 0a11.134 11.134 0 0 0 1.882 2.507c1.402 1.399 3.562 2.781 6.655 2.781 3.093 0 5.253-1.382 6.655-2.78a11.19 11.19 0 0 0 1.544-1.93c.148-.235.26-.432.337-.578a9.397 9.397 0 0 0-.337-.577 11.187 11.187 0 0 0-1.544-1.93c-1.402-1.399-3.562-2.781-6.655-2.781-3.093 0-5.253 1.382-6.655 2.78a11.185 11.185 0 0 0-1.544 1.93 9.39 9.39 0 0 0-.337.578Zm17.814 0 .606.268a.66.66 0 0 0 0-.537l-.606.269Z" clip-rule="evenodd"/><path fill-rule="evenodd" d="M11.94 9.416a2.647 2.647 0 0 0-2.65 2.644 2.647 2.647 0 0 0 2.65 2.644 2.647 2.647 0 0 0 2.65-2.644 2.647 2.647 0 0 0-2.65-2.644ZM7.964 12.06c0-2.19 1.78-3.966 3.976-3.966a3.971 3.971 0 0 1 3.976 3.966c0 2.19-1.78 3.966-3.976 3.966a3.971 3.971 0 0 1-3.976-3.966Z" clip-rule="evenodd"/></symbol><symbol viewBox="0 0 24 24" id="tcp" xmlns="http://www.w3.org/2000/svg"><path fill-rule="evenodd" clip-rule="evenodd" d="M14.913 11.219a.62.62 0 0 1-.277.819l-2.848 1.414a.593.593 0 0 1-.8-.284.62.62 0 0 1 .277-.819l2.848-1.414a.593.593 0 0 1 .8.284ZM8.395 4.366a.56.56 0 0 1 .553.566v5.495a.56.56 0 0 1-.553.565.56.56 0 0 1-.553-.566V4.933a.56.56 0 0 1 .553-.566Z"/><path fill-rule="evenodd" clip-rule="evenodd" d="M8.004 3.166a.544.544 0 0 1 .782 0l1.842 1.886c.216.22.216.579 0 .8a.544.544 0 0 1-.782 0L8.395 4.366 6.943 5.852a.544.544 0 0 1-.781 0 .575.575 0 0 1 0-.8l1.842-1.886ZM15.768 10.68c.08.153.095.333.038.496l-.788 2.284a.595.595 0 0 1-.764.373.617.617 0 0 1-.365-.782l.568-1.645-1.528-.384a.614.614 0 0 1-.439-.741.598.598 0 0 1 .724-.45l2.17.546a.601.601 0 0 1 .384.304ZM11.023 16.342a.59.59 0 0 1 .827-.186l4.71 3.086-.304-1.631a.612.612 0 0 1 .476-.717.6.6 0 0 1 .7.488l.557 2.994a.615.615 0 0 1-.4.696l-2.65.897a.596.596 0 0 1-.757-.39.616.616 0 0 1 .38-.774l1.426-.482-4.784-3.134a.622.622 0 0 1-.181-.847Z"/><path d="M10.145 14.315c0 1.042-.825 1.886-1.842 1.886-1.018 0-1.842-.844-1.842-1.886 0-1.041.824-1.886 1.842-1.886 1.017 0 1.842.845 1.842 1.886Z"/></symbol><symbol viewBox="0 0 24 24" id="tcp-rotation" xmlns="http://www.w3.org/2000/svg"><defs><style>.drcls-1{fill:#000}</style></defs><g id="drBase"><path class="drcls-1" d="M8.53 11.88a3.55 3.55 0 1 0 3.55-3.55 3.55 3.55 0 0 0-3.55 3.55Zm5.68 0a2.13 2.13 0 1 1-2.13-2.12 2.14 2.14 0 0 1 2.13 2.12Z"/><path class="drcls-1" d="M12 5a19 19 0 0 0-5.39.76C7.8 3.11 9.76 1.38 12 1.38a5 5 0 0 1 3.61 1.71.71.71 0 1 0 1-1A6.44 6.44 0 0 0 12 0C8.86 0 6.16 2.58 4.81 6.41 1.86 7.72 0 9.84 0 12.27s2 4.65 5.12 6C6.52 21.66 9.07 24 12 24c3.84 0 7.11-4 7.91-9.47h1.22a.4.4 0 0 0 .38-.59l-.94-1.47-.96-1.47a.46.46 0 0 0-.75 0l-.94 1.47-.92 1.42a.39.39 0 0 0 .37.59h1.09c-.74 4.69-3.4 8.05-6.47 8.05-2 0-3.8-1.42-5-3.65a18.43 18.43 0 0 0 3.53.62v1.17a.39.39 0 0 0 .59.38l1.47-.94 1.42-.94a.46.46 0 0 0 0-.75l-1.47-.93-1.47-.94a.39.39 0 0 0-.59.37v1.14a16.13 16.13 0 0 1-4.31-.92 16 16 0 0 1-.23-9.63 16.43 16.43 0 0 1 6-1.09c5.73 0 10.57 2.68 10.57 5.85a3.74 3.74 0 0 1-1 2.46.71.71 0 0 0 1.09.92A5.26 5.26 0 0 0 24 12.27C24 8.19 18.71 5 12 5ZM4.45 16.34c-1.88-1.07-3.05-2.52-3.05-4.07s1.1-2.9 2.87-3.95a17.14 17.14 0 0 0 .18 8Z"/></g></symbol><symbol viewBox="0 0 20 20" id="thread" xmlns="http://www.w3.org/2000/svg"><path fill-rule="evenodd" clip-rule="evenodd" d="M3.058 8.702c0-.309.234-.559.521-.559h7.292c.288 0 .521.25.521.559 0 .308-.233.558-.52.558H3.578c-.287 0-.52-.25-.52-.558Z"/><path fill-rule="evenodd" clip-rule="evenodd" d="M10.004 2h1.909c.288 0 .521.25.521.558 0 .309-.233.559-.52.559h-1.908c-.366 0-.72.14-1.002.39-.28.253-.47.602-.537.988L7.008 13.11a2.847 2.847 0 0 1-.894 1.643 2.507 2.507 0 0 1-1.668.65h-1.91c-.287 0-.52-.25-.52-.558 0-.309.233-.559.52-.559h1.908c.366 0 .72-.14 1.001-.39.281-.252.471-.602.538-.988l1.458-8.613v-.001a2.85 2.85 0 0 1 .895-1.644A2.507 2.507 0 0 1 10.004 2Zm1.148 9.633c0-.277.215-.502.48-.502h6.01v1.005h-6.01a.492.492 0 0 1-.48-.502Z"/><path fill-rule="evenodd" clip-rule="evenodd" d="M15.655 10.075a.467.467 0 0 1 .673-.1l1.432 1.122a.689.689 0 0 1 0 1.073l-1.432 1.122a.467.467 0 0 1-.673-.1.518.518 0 0 1 .097-.704l1.09-.854-1.09-.855a.518.518 0 0 1-.097-.704Zm-4.503 6.165c0-.277.215-.502.48-.502h5.61v1.005h-5.61a.492.492 0 0 1-.48-.502Z"/><path fill-rule="evenodd" clip-rule="evenodd" d="M15.655 14.683a.467.467 0 0 1 .673-.1l1.432 1.122a.689.689 0 0 1 0 1.072l-1.432 1.122a.467.467 0 0 1-.673-.1.518.518 0 0 1 .097-.704l1.09-.854-1.09-.855a.518.518 0 0 1-.097-.703Z"/></symbol><symbol viewBox="0 0 56 57" id="three-positions-frame" xmlns="http://www.w3.org/2000/svg"><g clip-path="url(#dua)"><path fill-rule="evenodd" clip-rule="evenodd" d="M20 6.85a.65.65 0 0 1 .65.65v29a.65.65 0 1 1-1.3 0v-29a.65.65 0 0 1 .65-.65Z"/><path fill-rule="evenodd" clip-rule="evenodd" d="M20.081 5.85a.65.65 0 0 1 .504.252l1.93 2.5a.65.65 0 1 1-1.03.795L20.052 7.54l-1.551 1.874a.65.65 0 1 1-1.002-.829l2.07-2.5a.65.65 0 0 1 .512-.235ZM43.65 35.5a.65.65 0 0 1-.65.65H21a.65.65 0 1 1 0-1.3h22a.65.65 0 0 1 .65.65Z"/><path fill-rule="evenodd" clip-rule="evenodd" d="M44.65 35.581a.65.65 0 0 1-.253.503l-2.5 1.93a.65.65 0 0 1-.794-1.029l1.856-1.433L41.085 34a.65.65 0 0 1 .83-1.001l2.5 2.07a.65.65 0 0 1 .235.512Z"/><g class="ducircle" style="fill:var(--color-icon-warning)"><path d="M22.5 35.75a2.25 2.25 0 1 1-4.5 0 2.25 2.25 0 0 1 4.5 0ZM50.5 35.75a2.25 2.25 0 1 1-4.5 0 2.25 2.25 0 0 1 4.5 0ZM50.5 9.75a2.25 2.25 0 1 1-4.5 0 2.25 2.25 0 0 1 4.5 0Z"/></g><g class="dudashed-arrow" style="fill:var(--color-icon-secondary)" fill-rule="evenodd" clip-rule="evenodd"><path d="M6.3 52.15a.65.65 0 0 1-.65-.65l-.001-3a.65.65 0 1 1 1.3 0v2.35H9a.65.65 0 0 1 0 1.3H6.3Z"/><path d="M7.586 50.5a.65.65 0 0 0 .915-.087l.317-.383a.65.65 0 0 0-1.002-.828l-.317.384a.65.65 0 0 0 .087.915Zm1.583-1.916a.65.65 0 0 0 .915-.087l.634-.767a.65.65 0 1 0-1.002-.828l-.634.767a.65.65 0 0 0 .087.915Zm1.9-2.3a.65.65 0 0 0 .915-.087l.634-.767a.65.65 0 1 0-1.002-.828l-.634.767a.65.65 0 0 0 .087.915Zm1.9-2.3a.65.65 0 0 0 .915-.087l.634-.767a.65.65 0 1 0-1.002-.828l-.634.767a.65.65 0 0 0 .087.915Zm1.9-2.3a.65.65 0 0 0 .915-.087l.634-.767a.65.65 0 1 0-1.002-.828l-.634.767a.65.65 0 0 0 .087.915Zm1.9-2.3a.65.65 0 0 0 .916-.087l.316-.383A.65.65 0 1 0 17 38.086l-.317.383a.65.65 0 0 0 .087.915Z"/></g><path d="m19.099.234.785 1.852.788-1.852h1.107l-1.37 2.734V4.5h-1.047V2.968L17.988.234h1.11ZM3.886 55.738v.762H1.43v-.762h2.455Zm-.03-1.875L1.873 56.5h-.677v-.55l1.98-2.62h.68v.533Zm-.325-.533v.762H1.255v-.762H3.53ZM54.116 34.33l.446.873.46-.873h1.025l-.832 1.544.876 1.626h-1.034l-.495-.938-.493.938h-1.034l.876-1.626-.829-1.544h1.034Z"/></g><defs><clipPath id="dua"><path transform="translate(0 .5)" d="M0 0h56v56H0z"/></clipPath></defs></symbol><symbol viewBox="0 0 24 24" id="tool-force" xmlns="http://www.w3.org/2000/svg"><path fill-rule="evenodd" clip-rule="evenodd" d="M3 17.778c0-.315.261-.57.583-.57h16.834c.322 0 .583.255.583.57 0 .315-.261.57-.583.57H3.583a.577.577 0 0 1-.583-.57ZM12 4c.322 0 .583.256.583.57v9.708c0 .315-.26.57-.583.57a.577.577 0 0 1-.583-.57V4.57c0-.315.26-.571.583-.571Z"/><path fill-rule="evenodd" clip-rule="evenodd" d="M9.254 11.591a.593.593 0 0 1 .825 0L12 13.471l1.92-1.88a.593.593 0 0 1 .826 0 .562.562 0 0 1 0 .807l-2.334 2.283a.593.593 0 0 1-.825 0l-2.333-2.283a.562.562 0 0 1 0-.807Z"/></symbol><symbol viewBox="0 0 24 24" id="translate" xmlns="http://www.w3.org/2000/svg"><path fill-rule="evenodd" clip-rule="evenodd" d="M12.077 13.397c1.262 0 2.286-1.037 2.286-2.315s-1.024-2.315-2.286-2.315S9.79 9.804 9.79 11.082s1.024 2.315 2.286 2.315Zm0 .712c1.65 0 2.989-1.355 2.989-3.027 0-1.672-1.338-3.027-2.99-3.027-1.65 0-2.988 1.355-2.988 3.027 0 1.672 1.338 3.027 2.989 3.027Z"/><path fill-rule="evenodd" clip-rule="evenodd" d="M21.611 16.136 23 20l-3.999-.714 1.08-1.302-6.143-5.22.452-.545 6.142 5.22 1.08-1.303ZM5.011 19.362 1 20l1.46-3.837 1.055 1.322 6.208-5.077.442.554-6.208 5.078 1.054 1.322Z"/><path fill-rule="evenodd" clip-rule="evenodd" d="m1.712 18.317 7.66-6.265.441.553-7.66 6.266-.441-.554ZM2.415 19.029l7.66-6.265.442.554-7.66 6.265-.442-.554ZM20.116 18.656l-6.33-5.342.45-.547 6.33 5.342-.45.547ZM20.467 17.944l-6.33-5.342.45-.547 6.33 5.342-.45.547ZM3.7 6.4 2.408 2.355l3.832.833-1.05 1.327 5.116 4.866-.44.556L4.75 5.072 3.7 6.4ZM18.845 2.92 22.802 2l-1.191 3.931-1.15-1.25a214.902 214.902 0 0 1-3.875 3.38 296.388 296.388 0 0 1-1.914 1.62l-.154.129-.224-.275-.223-.275.152-.128a293.162 293.162 0 0 0 1.91-1.615c1.125-.96 2.549-2.19 3.85-3.358l-1.138-1.238Z"/><path fill-rule="evenodd" clip-rule="evenodd" d="m21.975 4.052-7.107 6.116-.456-.542 7.107-6.117.456.543Z"/><path fill-rule="evenodd" clip-rule="evenodd" d="m21.924 3.316-7.76 6.138-.432-.561 7.76-6.139.432.562ZM4.946 3.663l5.5 5.197-.437.557L4.508 4.22l.438-.557ZM4.626 4.337l5.5 5.197-.437.557-5.501-5.197.438-.557Z"/></symbol><symbol viewBox="0 0 24 24" id="undo" xmlns="http://www.w3.org/2000/svg"><path fill-rule="evenodd" d="M8.207 3.043a1 1 0 0 1 0 1.414L4.414 8.25l3.793 3.793a1 1 0 1 1-1.414 1.414l-4.5-4.5a1 1 0 0 1 0-1.414l4.5-4.5a1 1 0 0 1 1.414 0Z" clip-rule="evenodd"/><path fill-rule="evenodd" d="M2 8.25a1 1 0 0 1 1-1h12.75a6.25 6.25 0 0 1 0 12.5H7.5a1 1 0 1 1 0-2h8.25a4.25 4.25 0 0 0 0-8.5H3a1 1 0 0 1-1-1Z" clip-rule="evenodd"/></symbol><symbol viewBox="0 0 24 24" id="unlocked" xmlns="http://www.w3.org/2000/svg"><path fill-rule="evenodd" clip-rule="evenodd" d="M4 10.083c0-.736.597-1.333 1.333-1.333h13.334c.736 0 1.333.597 1.333 1.333v9.334c0 .736-.597 1.333-1.333 1.333H5.333A1.333 1.333 0 0 1 4 19.417v-9.334Zm14.667 0H5.333v9.334h13.334v-9.334Z"/><path fill-rule="evenodd" clip-rule="evenodd" d="M12 4.083a2.333 2.333 0 0 0-2.333 2.334v3a.667.667 0 0 1-1.334 0v-3a3.667 3.667 0 0 1 7.334 0 .667.667 0 0 1-1.334 0A2.333 2.333 0 0 0 12 4.083Z"/></symbol><symbol viewBox="0 0 24 24" id="unsuppress" xmlns="http://www.w3.org/2000/svg"><path fill-rule="evenodd" d="M4.885 4.173a.667.667 0 0 1 .942.045L19.16 18.885a.667.667 0 0 1-.987.897L4.84 5.115a.667.667 0 0 1 .045-.942Z" clip-rule="evenodd"/><path fill-rule="evenodd" d="M10.252 9.085a.667.667 0 0 1-.045.942A2.667 2.667 0 0 0 12 14.667h.002a2.642 2.642 0 0 0 1.79-.692.667.667 0 0 1 .9.983A4 4 0 1 1 9.31 9.04a.667.667 0 0 1 .942.045Z" clip-rule="evenodd"/><path fill-rule="evenodd" d="M8.095 6.75a.667.667 0 0 1-.295.895c-1.584.8-2.72 1.96-3.462 2.93A10.855 10.855 0 0 0 3.412 12c.078.147.19.346.34.582.334.53.845 1.24 1.553 1.947 1.41 1.41 3.583 2.804 6.695 2.804h.005a9.158 9.158 0 0 0 4.195-.978.667.667 0 0 1 .6 1.19 10.492 10.492 0 0 1-4.803 1.122c-3.553-.001-6.046-1.607-7.635-3.196a12.612 12.612 0 0 1-1.739-2.178 10.66 10.66 0 0 1-.526-.936 4.423 4.423 0 0 1-.028-.06l-.008-.017-.002-.006-.001-.002.609-.272-.61-.27.001-.002.002-.004.004-.01a2.951 2.951 0 0 1 .074-.154c.051-.102.126-.245.226-.421.2-.352.502-.836.915-1.376.824-1.075 2.105-2.391 3.92-3.308a.667.667 0 0 1 .896.295ZM2.667 12l-.61-.27a.668.668 0 0 0 0 .54l.61-.27Zm7.374-6.398a10.99 10.99 0 0 1 1.836-.15l-.001.666v-.667c3.555 0 6.049 1.606 7.638 3.196a12.611 12.611 0 0 1 1.739 2.178 10.62 10.62 0 0 1 .525.936l.029.06.008.017.002.006v.002h.001l-.609.272h-.572c-.182 0-.048-.007-.097-.007s-.049-.013-.049-.013c.007-.02-.026.018-.027.02a9.48 9.48 0 0 0-.34-.582 11.285 11.285 0 0 0-1.553-1.947c-1.41-1.41-3.583-2.804-6.695-2.804h-.001a9.658 9.658 0 0 0-1.614.132.667.667 0 1 1-.22-1.315Zm11.168 6.516.61.27a.667.667 0 0 0 0-.54l-.61.27Zm-.745 0a11.153 11.153 0 0 1-2.316 2.928.667.667 0 1 0 .89.994 12.484 12.484 0 0 0 2.102-2.454 11.07 11.07 0 0 0 .631-1.097l.034-.07.009-.02.003-.006v-.003h.001l-.609-.272-.609.271.094-.153a.927.927 0 0 0-.117.104c-.24.222-.047-.095-.086-.17a6.254 6.254 0 0 0-.027-.052Z" clip-rule="evenodd"/><path d="M21.21 12.118h-.573c-.182 0-.048-.007-.097-.007s-.049-.013-.049-.013c.007-.02-.026.018-.027.02l.027.051c.04.075-.154.393.086.17 0 0 .113-.111.117-.103l-.094.153.61-.271Z"/><path fill-rule="evenodd" d="M11.97 8.6a.667.667 0 0 1 .779-.53 3.992 3.992 0 0 1 3.231 3.551.667.667 0 0 1-1.327.124A2.658 2.658 0 0 0 12.5 9.38a.667.667 0 0 1-.531-.78Z" clip-rule="evenodd"/></symbol><symbol viewBox="0 0 24 24" id="urplus" xmlns="http://www.w3.org/2000/svg"><path d="M18.01 20.88a.75.75 0 0 1-.52-.21l-3.47-3.29c-1.47-1.61-.97-3.26-.5-3.91l1.15-1.43c.12-.17.24-.39.33-.6.22-.5.2-1.05-.05-1.5-.24-.44-.66-.72-1.17-.79-.42-.07-.78-.05-.78-.05-.85.02-1.46.38-1.83 1.08-.08.15-.12.33-.12.52v6.36c.02.85-.27 1.58-.83 2.11-1.1 1.03-2.85.91-3.05.89-.99-.02-1.81-.35-2.4-.98-.91-.98-.87-2.28-.86-2.42V6.05c0-.41.34-.75.75-.75s.75.34.75.75V16.7c0 .04-.03.84.46 1.37.3.32.76.49 1.37.5.4.03 1.42 0 1.95-.5.25-.23.36-.56.36-1V10.7c0-.44.1-.86.3-1.23.37-.68 1.25-1.84 3.1-1.87.02 0 .48-.03 1.07.06.97.14 1.79.71 2.26 1.55.48.86.52 1.89.12 2.82-.13.3-.3.6-.51.9l-1.16 1.44c-.07.11-.55.94.38 1.96l3.43 3.25c.3.28.31.76.03 1.06a.79.79 0 0 1-.56.24ZM18.87 7.85c-.01 0 0 0 0 0-.28 0-.5-.23-.5-.5l.04-5.38c0-.27.23-.5.5-.5.28 0 .5.23.5.5l-.04 5.38c-.01.28-.23.5-.5.5Z"/><path d="M21.73 5.16h-5.7c-.28 0-.5-.22-.5-.5s.22-.5.5-.5h5.7c.28 0 .5.22.5.5s-.22.5-.5.5Z"/></symbol><symbol viewBox="0 0 24 24" id="usb" xmlns="http://www.w3.org/2000/svg"><path d="M10 4.212h1.244v1.23H10v-1.23Zm2.49 0h1.244v1.23h-1.245v-1.23Z"/><path fill-rule="evenodd" d="M17.32 8.576H6.68a.28.28 0 0 0-.28.28V20.32c0 .155.125.28.28.28h10.64a.28.28 0 0 0 .28-.28V8.856a.28.28 0 0 0-.28-.28Zm-10.64-1.4A1.68 1.68 0 0 0 5 8.856V20.32c0 .928.752 1.68 1.68 1.68h10.64A1.68 1.68 0 0 0 19 20.32V8.856a1.68 1.68 0 0 0-1.68-1.68H6.68Zm2.16-4.241a.14.14 0 0 0-.14.14v4.101H7.3v-4.1c0-.851.689-1.54 1.54-1.54h6.32c.85 0 1.54.689 1.54 1.54v4.1h-1.4v-4.1a.14.14 0 0 0-.14-.14H8.84Z" clip-rule="evenodd"/></symbol><symbol viewBox="0 0 24 24" id="value-item" xmlns="http://www.w3.org/2000/svg"><path fill-rule="evenodd" clip-rule="evenodd" d="M7.46 5.142a.6.6 0 0 1 .07.846c-.852 1.007-1.922 2.904-2.238 5.194-.313 2.268.11 4.93 2.245 7.538a.6.6 0 0 1-.929.76c-2.366-2.892-2.859-5.896-2.505-8.462.35-2.543 1.53-4.646 2.511-5.806a.6.6 0 0 1 .846-.07Zm8.795 0a.6.6 0 0 0-.07.846c.828.978 1.771 2.985 2.022 5.363.25 2.359-.188 5.026-2.036 7.378a.6.6 0 1 0 .944.742c2.08-2.648 2.56-5.647 2.286-8.246-.273-2.581-1.295-4.824-2.3-6.013a.6.6 0 0 0-.846-.07ZM9.206 8.624a.6.6 0 0 1 .842.11l5 6.5a.6.6 0 0 1-.951.732l-5-6.5a.6.6 0 0 1 .11-.842Z"/><path fill-rule="evenodd" clip-rule="evenodd" d="M14.938 8.624a.6.6 0 0 0-.841.11l-5 6.5a.6.6 0 0 0 .95.732l5-6.5a.6.6 0 0 0-.109-.842Z"/></symbol><symbol viewBox="0 0 24 24" id="wait" xmlns="http://www.w3.org/2000/svg"><path fill-rule="evenodd" clip-rule="evenodd" d="M12.25 7.75a5.833 5.833 0 1 0 0 11.667 5.833 5.833 0 0 0 0-11.667Zm-7 5.833a7 7 0 1 1 14 0 7 7 0 0 1-14 0Z"/><path fill-rule="evenodd" clip-rule="evenodd" d="M15.55 10.283a.583.583 0 0 1 0 .825l-2.888 2.888a.583.583 0 0 1-.825-.825l2.888-2.888a.583.583 0 0 1 .825 0ZM9.917 4.833c0-.322.26-.583.583-.583H14a.583.583 0 1 1 0 1.167h-3.5a.583.583 0 0 1-.583-.584Z"/></symbol><symbol viewBox="0 0 24 24" id="warning" xmlns="http://www.w3.org/2000/svg"><path fill-rule="evenodd" d="M22.125 16.898 14.07 3.254c-.199-.336-.488-.61-.832-.805a2.33 2.33 0 0 0-2.265 0 2.253 2.253 0 0 0-.832.805L2.086 16.898a2.062 2.062 0 0 0 0 2.133c.195.336.484.614.828.805.348.195.738.293 1.137.289h16.11c.398.004.788-.098 1.132-.29.348-.19.633-.468.832-.804a2.062 2.062 0 0 0 0-2.133Zm-1.277 1.41a.769.769 0 0 1-.688.38H4.05a.783.783 0 0 1-.687-.38.628.628 0 0 1-.097-.343c0-.125.03-.242.097-.348l8.055-13.644a.78.78 0 0 1 .293-.282.824.824 0 0 1 .793 0 .78.78 0 0 1 .293.282l8.055 13.644a.687.687 0 0 1 .097.348.666.666 0 0 1-.101.344Zm-9.48-5.37V9.344c0-.192.077-.375.218-.508a.733.733 0 0 1 .52-.211c.195 0 .382.074.519.21.14.134.219.317.219.509v3.594a.698.698 0 0 1-.219.507.733.733 0 0 1-.52.211.733.733 0 0 1-.52-.21.698.698 0 0 1-.218-.508Zm1.843 3.234c0 .215-.066.422-.188.598-.12.18-.293.316-.496.398a1.14 1.14 0 0 1-.636.062 1.106 1.106 0 0 1-.871-.847 1.072 1.072 0 0 1 .472-1.106 1.115 1.115 0 0 1 1.395.133c.207.203.324.477.324.762Zm0 0"/></symbol><symbol viewBox="0 0 24 24" id="warning-circle" xmlns="http://www.w3.org/2000/svg"><path fill-rule="evenodd" d="M12 3.75a8.25 8.25 0 1 0 0 16.5 8.25 8.25 0 0 0 0-16.5ZM2.25 12c0-5.385 4.365-9.75 9.75-9.75s9.75 4.365 9.75 9.75-4.365 9.75-9.75 9.75S2.25 17.385 2.25 12Z" clip-rule="evenodd"/><path fill-rule="evenodd" d="M12 6.75a.75.75 0 0 1 .75.75v5.25a.75.75 0 0 1-1.5 0V7.5a.75.75 0 0 1 .75-.75Z" clip-rule="evenodd"/><path d="M12 17.25A1.125 1.125 0 1 0 12 15a1.125 1.125 0 0 0 0 2.25Z"/></symbol><symbol viewBox="0 0 24 24" id="waypoint" xmlns="http://www.w3.org/2000/svg"><path fill-rule="evenodd" clip-rule="evenodd" d="M12 7.286a2.464 2.464 0 1 0 0 4.928 2.464 2.464 0 0 0 0-4.928ZM8.464 9.75a3.536 3.536 0 1 1 7.072 0 3.536 3.536 0 0 1-7.072 0Z"/><path fill-rule="evenodd" clip-rule="evenodd" d="M12 2.786A6.964 6.964 0 0 0 5.036 9.75c0 3.182 1.774 6.059 3.618 8.18A23.85 23.85 0 0 0 12 21.083a23.846 23.846 0 0 0 3.346-3.154c1.844-2.12 3.618-4.997 3.618-8.179A6.965 6.965 0 0 0 12 2.786Zm0 18.964.307.439a.536.536 0 0 1-.614 0L12 21.75ZM6.318 4.068A8.036 8.036 0 0 1 20.036 9.75c0 3.568-1.976 6.691-3.882 8.883a24.93 24.93 0 0 1-3.506 3.304 14.714 14.714 0 0 1-.315.234l-.018.013-.005.003-.003.002L12 21.75l-.307.439-.002-.002-.006-.003-.018-.013-.067-.049a21.828 21.828 0 0 1-1.119-.89 24.927 24.927 0 0 1-2.635-2.6c-1.906-2.19-3.882-5.314-3.882-8.882 0-2.131.847-4.175 2.354-5.682Z"/></symbol><symbol viewBox="0 0 24 24" id="wizard" xmlns="http://www.w3.org/2000/svg"><path d="M23.063 14.25a.562.562 0 0 1-.563.563h-1.687V16.5a.562.562 0 1 1-1.125 0v-1.687H18a.563.563 0 0 1 0-1.125h1.688V12a.563.563 0 1 1 1.125 0v1.688H22.5a.563.563 0 0 1 .563.562ZM5.25 6.563h1.688V8.25a.562.562 0 1 0 1.125 0V6.563H9.75a.563.563 0 1 0 0-1.125H8.063V3.75a.562.562 0 0 0-1.125 0v1.688H5.25a.563.563 0 0 0 0 1.125Zm12 11.625h-.937v-.938a.563.563 0 0 0-1.125 0v.938h-.938a.563.563 0 0 0 0 1.125h.938v.937a.562.562 0 1 0 1.125 0v-.937h.937a.563.563 0 0 0 0-1.125Zm3.178-10.82L7.367 20.428a1.313 1.313 0 0 1-1.856 0l-1.94-1.94a1.311 1.311 0 0 1 0-1.856l13.061-13.06a1.313 1.313 0 0 1 1.856 0l1.94 1.94a1.311 1.311 0 0 1 0 1.856ZM15.704 10.5 13.5 8.296l-9.133 9.132a.187.187 0 0 0 0 .265l1.94 1.94a.188.188 0 0 0 .264 0l9.133-9.133Zm3.928-4.193-1.939-1.94a.187.187 0 0 0-.265 0L14.295 7.5 16.5 9.705l3.132-3.133a.186.186 0 0 0 .04-.204.186.186 0 0 0-.04-.061Z"/></symbol><symbol viewBox="0 0 24 24" id="x" xmlns="http://www.w3.org/2000/svg"><path d="m10.767 6.758 1.74 3.224 1.739-3.224h2.177l-2.685 4.583L16.493 16h-2.197l-1.79-3.288L10.716 16H8.507l2.762-4.66-2.692-4.582h2.19Z"/></symbol><symbol viewBox="0 0 24 24" id="xy-plane" xmlns="http://www.w3.org/2000/svg"><path fill-rule="evenodd" clip-rule="evenodd" d="M11.903 15.324c1.242 0 2.25-1.048 2.25-2.34 0-1.293-1.008-2.341-2.25-2.341-1.243 0-2.25 1.048-2.25 2.34 0 1.293 1.007 2.34 2.25 2.34Zm0 .72c1.624 0 2.942-1.37 2.942-3.06 0-1.691-1.318-3.061-2.942-3.061-1.625 0-2.942 1.37-2.942 3.06s1.317 3.06 2.942 3.06Z"/><path fill-rule="evenodd" clip-rule="evenodd" d="M21.633 17.733 23 21.64l-3.936-.722 1.062-1.317-6.046-5.277.445-.552 6.046 5.278 1.062-1.317ZM4.948 21.355 1 22l1.437-3.88 1.038 1.338 6.11-5.135.436.56-6.11 5.135 1.037 1.337Z"/><path fill-rule="evenodd" clip-rule="evenodd" d="m1.7 20.298 7.54-6.335.435.56-7.54 6.335-.435-.56ZM2.393 21.018l7.539-6.335.435.56-7.54 6.335-.434-.56ZM20.16 20.281l-6.23-5.4.444-.554 6.23 5.4-.443.554ZM20.507 19.56l-6.23-5.4.443-.553 6.23 5.4-.443.554ZM10.864 10.281v-1.68h2.077v1.68h-2.077Zm2.077-4.08v1.2h-2.077V6.2h2.077Zm0-2.4V5h-2.077V3.8h2.077Zm0-1.801v.6h-2.077V2h2.077Z"/></symbol><symbol viewBox="0 0 24 24" id="y" xmlns="http://www.w3.org/2000/svg"><path d="m10.57 6.758 1.93 4.215 1.93-4.215h2.075l-3.04 5.878V16h-1.93v-3.364L8.488 6.758h2.082Z"/></symbol><symbol viewBox="0 0 24 24" id="z" xmlns="http://www.w3.org/2000/svg"><path d="M15.561 14.515V16h-6.55v-1.485h6.55Zm-.095-6.697L9.854 16H8.515v-1.092l5.656-8.15h1.295v1.06Zm-.654-1.06V8.25h-6.29V6.758h6.29Z"/></symbol></svg>